%TF.GenerationSoftware,KiCad,Pcbnew,9.0.0-9.0.0-2~ubuntu22.04.1*%
%TF.CreationDate,2025-03-23T14:07:51-07:00*%
%TF.ProjectId,awg1,61776731-2e6b-4696-9361-645f70636258,rev?*%
%TF.SameCoordinates,Original*%
%TF.FileFunction,Legend,Top*%
%TF.FilePolarity,Positive*%
%FSLAX46Y46*%
G04 Gerber Fmt 4.6, Leading zero omitted, Abs format (unit mm)*
G04 Created by KiCad (PCBNEW 9.0.0-9.0.0-2~ubuntu22.04.1) date 2025-03-23 14:07:51*
%MOMM*%
%LPD*%
G01*
G04 APERTURE LIST*
G04 Aperture macros list*
%AMRoundRect*
0 Rectangle with rounded corners*
0 $1 Rounding radius*
0 $2 $3 $4 $5 $6 $7 $8 $9 X,Y pos of 4 corners*
0 Add a 4 corners polygon primitive as box body*
4,1,4,$2,$3,$4,$5,$6,$7,$8,$9,$2,$3,0*
0 Add four circle primitives for the rounded corners*
1,1,$1+$1,$2,$3*
1,1,$1+$1,$4,$5*
1,1,$1+$1,$6,$7*
1,1,$1+$1,$8,$9*
0 Add four rect primitives between the rounded corners*
20,1,$1+$1,$2,$3,$4,$5,0*
20,1,$1+$1,$4,$5,$6,$7,0*
20,1,$1+$1,$6,$7,$8,$9,0*
20,1,$1+$1,$8,$9,$2,$3,0*%
%AMFreePoly0*
4,1,6,0.180000,-0.105000,-0.180000,-0.105000,-0.180000,-0.075000,0.000000,0.105000,0.180000,0.105000,0.180000,-0.105000,0.180000,-0.105000,$1*%
%AMFreePoly1*
4,1,6,0.180000,-0.105000,0.000000,-0.105000,-0.180000,0.075000,-0.180000,0.105000,0.180000,0.105000,0.180000,-0.105000,0.180000,-0.105000,$1*%
%AMFreePoly2*
4,1,6,0.180000,-0.075000,0.180000,-0.105000,-0.180000,-0.105000,-0.180000,0.105000,0.000000,0.105000,0.180000,-0.075000,0.180000,-0.075000,$1*%
%AMFreePoly3*
4,1,6,0.180000,0.075000,0.000000,-0.105000,-0.180000,-0.105000,-0.180000,0.105000,0.180000,0.105000,0.180000,0.075000,0.180000,0.075000,$1*%
G04 Aperture macros list end*
%ADD10C,0.300000*%
%ADD11C,0.150000*%
%ADD12C,0.120000*%
%ADD13C,0.140357*%
%ADD14C,0.470000*%
%ADD15RoundRect,0.030000X0.225000X0.690000X-0.225000X0.690000X-0.225000X-0.690000X0.225000X-0.690000X0*%
%ADD16RoundRect,0.030000X0.825000X0.650000X-0.825000X0.650000X-0.825000X-0.650000X0.825000X-0.650000X0*%
%ADD17RoundRect,0.030000X0.712500X0.775000X-0.712500X0.775000X-0.712500X-0.775000X0.712500X-0.775000X0*%
%ADD18RoundRect,0.030000X0.900000X0.950000X-0.900000X0.950000X-0.900000X-0.950000X0.900000X-0.950000X0*%
%ADD19RoundRect,0.030000X0.500000X0.950000X-0.500000X0.950000X-0.500000X-0.950000X0.500000X-0.950000X0*%
%ADD20RoundRect,0.215000X-0.290000X0.215000X-0.290000X-0.215000X0.290000X-0.215000X0.290000X0.215000X0*%
%ADD21RoundRect,0.233750X0.233750X0.271250X-0.233750X0.271250X-0.233750X-0.271250X0.233750X-0.271250X0*%
%ADD22RoundRect,0.240000X0.265000X-0.240000X0.265000X0.240000X-0.265000X0.240000X-0.265000X-0.240000X0*%
%ADD23RoundRect,0.240000X-0.265000X0.240000X-0.265000X-0.240000X0.265000X-0.240000X0.265000X0.240000X0*%
%ADD24RoundRect,0.150000X-0.200000X0.150000X-0.200000X-0.150000X0.200000X-0.150000X0.200000X0.150000X0*%
%ADD25RoundRect,0.155000X-0.155000X-0.185000X0.155000X-0.185000X0.155000X0.185000X-0.155000X0.185000X0*%
%ADD26RoundRect,0.155000X-0.185000X0.155000X-0.185000X-0.155000X0.185000X-0.155000X0.185000X0.155000X0*%
%ADD27RoundRect,0.155000X0.155000X0.185000X-0.155000X0.185000X-0.155000X-0.185000X0.155000X-0.185000X0*%
%ADD28RoundRect,0.215000X0.215000X0.290000X-0.215000X0.290000X-0.215000X-0.290000X0.215000X-0.290000X0*%
%ADD29RoundRect,0.258333X1.021667X0.671667X-1.021667X0.671667X-1.021667X-0.671667X1.021667X-0.671667X0*%
%ADD30RoundRect,0.240000X0.240000X0.265000X-0.240000X0.265000X-0.240000X-0.265000X0.240000X-0.265000X0*%
%ADD31RoundRect,0.165000X0.165000X-0.527500X0.165000X0.527500X-0.165000X0.527500X-0.165000X-0.527500X0*%
%ADD32RoundRect,0.165000X0.165000X-0.602500X0.165000X0.602500X-0.165000X0.602500X-0.165000X-0.602500X0*%
%ADD33RoundRect,0.215000X0.290000X-0.215000X0.290000X0.215000X-0.290000X0.215000X-0.290000X-0.215000X0*%
%ADD34RoundRect,0.165000X-0.165000X0.602500X-0.165000X-0.602500X0.165000X-0.602500X0.165000X0.602500X0*%
%ADD35RoundRect,0.233750X0.271250X-0.233750X0.271250X0.233750X-0.271250X0.233750X-0.271250X-0.233750X0*%
%ADD36RoundRect,0.240000X-0.240000X-0.265000X0.240000X-0.265000X0.240000X0.265000X-0.240000X0.265000X0*%
%ADD37RoundRect,0.262500X-0.367500X0.867500X-0.367500X-0.867500X0.367500X-0.867500X0.367500X0.867500X0*%
%ADD38RoundRect,0.252584X-2.677416X2.977416X-2.677416X-2.977416X2.677416X-2.977416X2.677416X2.977416X0*%
%ADD39RoundRect,0.030000X-0.750000X-2.540000X0.750000X-2.540000X0.750000X2.540000X-0.750000X2.540000X0*%
%ADD40RoundRect,0.263043X-0.666957X0.341957X-0.666957X-0.341957X0.666957X-0.341957X0.666957X0.341957X0*%
%ADD41RoundRect,0.263043X0.666957X-0.341957X0.666957X0.341957X-0.666957X0.341957X-0.666957X-0.341957X0*%
%ADD42O,1.760000X1.760000*%
%ADD43RoundRect,0.030000X0.850000X-0.850000X0.850000X0.850000X-0.850000X0.850000X-0.850000X-0.850000X0*%
%ADD44RoundRect,0.165000X-0.165000X0.840000X-0.165000X-0.840000X0.165000X-0.840000X0.165000X0.840000X0*%
%ADD45RoundRect,0.215000X-0.215000X-0.290000X0.215000X-0.290000X0.215000X0.290000X-0.215000X0.290000X0*%
%ADD46RoundRect,0.150000X-0.150000X-0.200000X0.150000X-0.200000X0.150000X0.200000X-0.150000X0.200000X0*%
%ADD47RoundRect,0.233750X-0.271250X0.233750X-0.271250X-0.233750X0.271250X-0.233750X0.271250X0.233750X0*%
%ADD48RoundRect,0.258333X-1.021667X-0.671667X1.021667X-0.671667X1.021667X0.671667X-1.021667X0.671667X0*%
%ADD49RoundRect,0.215000X-0.053033X0.357089X-0.357089X0.053033X0.053033X-0.357089X0.357089X-0.053033X0*%
%ADD50RoundRect,0.030000X-2.540000X0.750000X-2.540000X-0.750000X2.540000X-0.750000X2.540000X0.750000X0*%
%ADD51RoundRect,0.115000X-0.115000X0.652500X-0.115000X-0.652500X0.115000X-0.652500X0.115000X0.652500X0*%
%ADD52RoundRect,0.252500X0.252500X-0.265000X0.252500X0.265000X-0.252500X0.265000X-0.252500X-0.265000X0*%
%ADD53RoundRect,0.233750X-0.233750X-0.271250X0.233750X-0.271250X0.233750X0.271250X-0.233750X0.271250X0*%
%ADD54RoundRect,0.150000X0.150000X0.200000X-0.150000X0.200000X-0.150000X-0.200000X0.150000X-0.200000X0*%
%ADD55RoundRect,0.287960X-2.842040X2.842040X-2.842040X-2.842040X2.842040X-2.842040X2.842040X2.842040X0*%
%ADD56RoundRect,0.077500X-0.452500X0.077500X-0.452500X-0.077500X0.452500X-0.077500X0.452500X0.077500X0*%
%ADD57RoundRect,0.077500X-0.077500X0.452500X-0.077500X-0.452500X0.077500X-0.452500X0.077500X0.452500X0*%
%ADD58RoundRect,0.233750X0.233750X0.396250X-0.233750X0.396250X-0.233750X-0.396250X0.233750X-0.396250X0*%
%ADD59RoundRect,0.165000X-0.602500X-0.165000X0.602500X-0.165000X0.602500X0.165000X-0.602500X0.165000X0*%
%ADD60RoundRect,0.352000X-0.528000X-0.528000X0.528000X-0.528000X0.528000X0.528000X-0.528000X0.528000X0*%
%ADD61RoundRect,0.150000X0.200000X-0.150000X0.200000X0.150000X-0.200000X0.150000X-0.200000X-0.150000X0*%
%ADD62RoundRect,0.100000X0.100000X-0.280000X0.100000X0.280000X-0.100000X0.280000X-0.100000X-0.280000X0*%
%ADD63RoundRect,0.030000X-0.850000X-0.850000X0.850000X-0.850000X0.850000X0.850000X-0.850000X0.850000X0*%
%ADD64RoundRect,0.192000X0.288000X-0.338000X0.288000X0.338000X-0.288000X0.338000X-0.288000X-0.338000X0*%
%ADD65RoundRect,0.155000X0.185000X-0.155000X0.185000X0.155000X-0.185000X0.155000X-0.185000X-0.155000X0*%
%ADD66RoundRect,0.165000X0.602500X0.165000X-0.602500X0.165000X-0.602500X-0.165000X0.602500X-0.165000X0*%
%ADD67C,1.060000*%
%ADD68RoundRect,0.254411X-1.925589X1.475589X-1.925589X-1.475589X1.925589X-1.475589X1.925589X1.475589X0*%
%ADD69RoundRect,0.140000X-0.140000X0.265000X-0.140000X-0.265000X0.140000X-0.265000X0.140000X0.265000X0*%
%ADD70RoundRect,0.258333X-0.671667X1.021667X-0.671667X-1.021667X0.671667X-1.021667X0.671667X1.021667X0*%
%ADD71RoundRect,0.030000X0.300000X-0.550000X0.300000X0.550000X-0.300000X0.550000X-0.300000X-0.550000X0*%
%ADD72RoundRect,0.030000X0.550000X0.450000X-0.550000X0.450000X-0.550000X-0.450000X0.550000X-0.450000X0*%
%ADD73RoundRect,0.120000X0.169706X0.000000X0.000000X0.169706X-0.169706X0.000000X0.000000X-0.169706X0*%
%ADD74FreePoly0,90.000000*%
%ADD75FreePoly1,90.000000*%
%ADD76FreePoly2,90.000000*%
%ADD77FreePoly3,90.000000*%
%ADD78RoundRect,0.030000X0.500000X0.350000X-0.500000X0.350000X-0.500000X-0.350000X0.500000X-0.350000X0*%
%ADD79RoundRect,0.030000X0.500000X0.325000X-0.500000X0.325000X-0.500000X-0.325000X0.500000X-0.325000X0*%
%ADD80RoundRect,0.030000X-0.525000X-0.325000X0.525000X-0.325000X0.525000X0.325000X-0.525000X0.325000X0*%
G04 APERTURE END LIST*
D10*
X192232757Y-86042041D02*
X192232757Y-84518232D01*
X192994662Y-82518232D02*
X192994662Y-83661089D01*
X192994662Y-83089661D02*
X190994662Y-83089661D01*
X190994662Y-83089661D02*
X191280376Y-83280137D01*
X191280376Y-83280137D02*
X191470852Y-83470613D01*
X191470852Y-83470613D02*
X191566090Y-83661089D01*
X190994662Y-80708708D02*
X190994662Y-81661089D01*
X190994662Y-81661089D02*
X191947043Y-81756327D01*
X191947043Y-81756327D02*
X191851804Y-81661089D01*
X191851804Y-81661089D02*
X191756566Y-81470613D01*
X191756566Y-81470613D02*
X191756566Y-80994422D01*
X191756566Y-80994422D02*
X191851804Y-80803946D01*
X191851804Y-80803946D02*
X191947043Y-80708708D01*
X191947043Y-80708708D02*
X192137519Y-80613470D01*
X192137519Y-80613470D02*
X192613709Y-80613470D01*
X192613709Y-80613470D02*
X192804185Y-80708708D01*
X192804185Y-80708708D02*
X192899424Y-80803946D01*
X192899424Y-80803946D02*
X192994662Y-80994422D01*
X192994662Y-80994422D02*
X192994662Y-81470613D01*
X192994662Y-81470613D02*
X192899424Y-81661089D01*
X192899424Y-81661089D02*
X192804185Y-81756327D01*
X190994662Y-80042041D02*
X192994662Y-79375375D01*
X192994662Y-79375375D02*
X190994662Y-78708708D01*
X194309788Y-84994422D02*
X194214550Y-85184898D01*
X194214550Y-85184898D02*
X194214550Y-85470612D01*
X194214550Y-85470612D02*
X194309788Y-85756327D01*
X194309788Y-85756327D02*
X194500264Y-85946803D01*
X194500264Y-85946803D02*
X194690740Y-86042041D01*
X194690740Y-86042041D02*
X195071692Y-86137279D01*
X195071692Y-86137279D02*
X195357407Y-86137279D01*
X195357407Y-86137279D02*
X195738359Y-86042041D01*
X195738359Y-86042041D02*
X195928835Y-85946803D01*
X195928835Y-85946803D02*
X196119312Y-85756327D01*
X196119312Y-85756327D02*
X196214550Y-85470612D01*
X196214550Y-85470612D02*
X196214550Y-85280136D01*
X196214550Y-85280136D02*
X196119312Y-84994422D01*
X196119312Y-84994422D02*
X196024073Y-84899184D01*
X196024073Y-84899184D02*
X195357407Y-84899184D01*
X195357407Y-84899184D02*
X195357407Y-85280136D01*
X196214550Y-84042041D02*
X194214550Y-84042041D01*
X194214550Y-84042041D02*
X196214550Y-82899184D01*
X196214550Y-82899184D02*
X194214550Y-82899184D01*
X196214550Y-81946803D02*
X194214550Y-81946803D01*
X194214550Y-81946803D02*
X194214550Y-81470613D01*
X194214550Y-81470613D02*
X194309788Y-81184898D01*
X194309788Y-81184898D02*
X194500264Y-80994422D01*
X194500264Y-80994422D02*
X194690740Y-80899184D01*
X194690740Y-80899184D02*
X195071692Y-80803946D01*
X195071692Y-80803946D02*
X195357407Y-80803946D01*
X195357407Y-80803946D02*
X195738359Y-80899184D01*
X195738359Y-80899184D02*
X195928835Y-80994422D01*
X195928835Y-80994422D02*
X196119312Y-81184898D01*
X196119312Y-81184898D02*
X196214550Y-81470613D01*
X196214550Y-81470613D02*
X196214550Y-81946803D01*
X198672533Y-86042041D02*
X198672533Y-84518232D01*
X199434438Y-85280136D02*
X197910628Y-85280136D01*
X199434438Y-82518232D02*
X199434438Y-83661089D01*
X199434438Y-83089661D02*
X197434438Y-83089661D01*
X197434438Y-83089661D02*
X197720152Y-83280137D01*
X197720152Y-83280137D02*
X197910628Y-83470613D01*
X197910628Y-83470613D02*
X198005866Y-83661089D01*
X197434438Y-80708708D02*
X197434438Y-81661089D01*
X197434438Y-81661089D02*
X198386819Y-81756327D01*
X198386819Y-81756327D02*
X198291580Y-81661089D01*
X198291580Y-81661089D02*
X198196342Y-81470613D01*
X198196342Y-81470613D02*
X198196342Y-80994422D01*
X198196342Y-80994422D02*
X198291580Y-80803946D01*
X198291580Y-80803946D02*
X198386819Y-80708708D01*
X198386819Y-80708708D02*
X198577295Y-80613470D01*
X198577295Y-80613470D02*
X199053485Y-80613470D01*
X199053485Y-80613470D02*
X199243961Y-80708708D01*
X199243961Y-80708708D02*
X199339200Y-80803946D01*
X199339200Y-80803946D02*
X199434438Y-80994422D01*
X199434438Y-80994422D02*
X199434438Y-81470613D01*
X199434438Y-81470613D02*
X199339200Y-81661089D01*
X199339200Y-81661089D02*
X199243961Y-81756327D01*
X197434438Y-80042041D02*
X199434438Y-79375375D01*
X199434438Y-79375375D02*
X197434438Y-78708708D01*
D11*
X181894485Y-47421219D02*
X181894485Y-48135504D01*
X181894485Y-48135504D02*
X181846866Y-48278361D01*
X181846866Y-48278361D02*
X181751628Y-48373600D01*
X181751628Y-48373600D02*
X181608771Y-48421219D01*
X181608771Y-48421219D02*
X181513533Y-48421219D01*
X182799247Y-47754552D02*
X182799247Y-48421219D01*
X182561152Y-47373600D02*
X182323057Y-48087885D01*
X182323057Y-48087885D02*
X182942104Y-48087885D01*
X183513533Y-47421219D02*
X183608771Y-47421219D01*
X183608771Y-47421219D02*
X183704009Y-47468838D01*
X183704009Y-47468838D02*
X183751628Y-47516457D01*
X183751628Y-47516457D02*
X183799247Y-47611695D01*
X183799247Y-47611695D02*
X183846866Y-47802171D01*
X183846866Y-47802171D02*
X183846866Y-48040266D01*
X183846866Y-48040266D02*
X183799247Y-48230742D01*
X183799247Y-48230742D02*
X183751628Y-48325980D01*
X183751628Y-48325980D02*
X183704009Y-48373600D01*
X183704009Y-48373600D02*
X183608771Y-48421219D01*
X183608771Y-48421219D02*
X183513533Y-48421219D01*
X183513533Y-48421219D02*
X183418295Y-48373600D01*
X183418295Y-48373600D02*
X183370676Y-48325980D01*
X183370676Y-48325980D02*
X183323057Y-48230742D01*
X183323057Y-48230742D02*
X183275438Y-48040266D01*
X183275438Y-48040266D02*
X183275438Y-47802171D01*
X183275438Y-47802171D02*
X183323057Y-47611695D01*
X183323057Y-47611695D02*
X183370676Y-47516457D01*
X183370676Y-47516457D02*
X183418295Y-47468838D01*
X183418295Y-47468838D02*
X183513533Y-47421219D01*
X184799247Y-48421219D02*
X184227819Y-48421219D01*
X184513533Y-48421219D02*
X184513533Y-47421219D01*
X184513533Y-47421219D02*
X184418295Y-47564076D01*
X184418295Y-47564076D02*
X184323057Y-47659314D01*
X184323057Y-47659314D02*
X184227819Y-47706933D01*
X184599585Y-51983209D02*
X184266252Y-51983209D01*
X184266252Y-52507019D02*
X184266252Y-51507019D01*
X184266252Y-51507019D02*
X184742442Y-51507019D01*
X185456728Y-51983209D02*
X185599585Y-52030828D01*
X185599585Y-52030828D02*
X185647204Y-52078447D01*
X185647204Y-52078447D02*
X185694823Y-52173685D01*
X185694823Y-52173685D02*
X185694823Y-52316542D01*
X185694823Y-52316542D02*
X185647204Y-52411780D01*
X185647204Y-52411780D02*
X185599585Y-52459400D01*
X185599585Y-52459400D02*
X185504347Y-52507019D01*
X185504347Y-52507019D02*
X185123395Y-52507019D01*
X185123395Y-52507019D02*
X185123395Y-51507019D01*
X185123395Y-51507019D02*
X185456728Y-51507019D01*
X185456728Y-51507019D02*
X185551966Y-51554638D01*
X185551966Y-51554638D02*
X185599585Y-51602257D01*
X185599585Y-51602257D02*
X185647204Y-51697495D01*
X185647204Y-51697495D02*
X185647204Y-51792733D01*
X185647204Y-51792733D02*
X185599585Y-51887971D01*
X185599585Y-51887971D02*
X185551966Y-51935590D01*
X185551966Y-51935590D02*
X185456728Y-51983209D01*
X185456728Y-51983209D02*
X185123395Y-51983209D01*
X186551966Y-51840352D02*
X186551966Y-52507019D01*
X186313871Y-51459400D02*
X186075776Y-52173685D01*
X186075776Y-52173685D02*
X186694823Y-52173685D01*
X187266252Y-51507019D02*
X187361490Y-51507019D01*
X187361490Y-51507019D02*
X187456728Y-51554638D01*
X187456728Y-51554638D02*
X187504347Y-51602257D01*
X187504347Y-51602257D02*
X187551966Y-51697495D01*
X187551966Y-51697495D02*
X187599585Y-51887971D01*
X187599585Y-51887971D02*
X187599585Y-52126066D01*
X187599585Y-52126066D02*
X187551966Y-52316542D01*
X187551966Y-52316542D02*
X187504347Y-52411780D01*
X187504347Y-52411780D02*
X187456728Y-52459400D01*
X187456728Y-52459400D02*
X187361490Y-52507019D01*
X187361490Y-52507019D02*
X187266252Y-52507019D01*
X187266252Y-52507019D02*
X187171014Y-52459400D01*
X187171014Y-52459400D02*
X187123395Y-52411780D01*
X187123395Y-52411780D02*
X187075776Y-52316542D01*
X187075776Y-52316542D02*
X187028157Y-52126066D01*
X187028157Y-52126066D02*
X187028157Y-51887971D01*
X187028157Y-51887971D02*
X187075776Y-51697495D01*
X187075776Y-51697495D02*
X187123395Y-51602257D01*
X187123395Y-51602257D02*
X187171014Y-51554638D01*
X187171014Y-51554638D02*
X187266252Y-51507019D01*
X188504347Y-51507019D02*
X188028157Y-51507019D01*
X188028157Y-51507019D02*
X187980538Y-51983209D01*
X187980538Y-51983209D02*
X188028157Y-51935590D01*
X188028157Y-51935590D02*
X188123395Y-51887971D01*
X188123395Y-51887971D02*
X188361490Y-51887971D01*
X188361490Y-51887971D02*
X188456728Y-51935590D01*
X188456728Y-51935590D02*
X188504347Y-51983209D01*
X188504347Y-51983209D02*
X188551966Y-52078447D01*
X188551966Y-52078447D02*
X188551966Y-52316542D01*
X188551966Y-52316542D02*
X188504347Y-52411780D01*
X188504347Y-52411780D02*
X188456728Y-52459400D01*
X188456728Y-52459400D02*
X188361490Y-52507019D01*
X188361490Y-52507019D02*
X188123395Y-52507019D01*
X188123395Y-52507019D02*
X188028157Y-52459400D01*
X188028157Y-52459400D02*
X187980538Y-52411780D01*
X160338419Y-126783885D02*
X161147942Y-126783885D01*
X161147942Y-126783885D02*
X161243180Y-126736266D01*
X161243180Y-126736266D02*
X161290800Y-126688647D01*
X161290800Y-126688647D02*
X161338419Y-126593409D01*
X161338419Y-126593409D02*
X161338419Y-126402933D01*
X161338419Y-126402933D02*
X161290800Y-126307695D01*
X161290800Y-126307695D02*
X161243180Y-126260076D01*
X161243180Y-126260076D02*
X161147942Y-126212457D01*
X161147942Y-126212457D02*
X160338419Y-126212457D01*
X160338419Y-125260076D02*
X160338419Y-125736266D01*
X160338419Y-125736266D02*
X160814609Y-125783885D01*
X160814609Y-125783885D02*
X160766990Y-125736266D01*
X160766990Y-125736266D02*
X160719371Y-125641028D01*
X160719371Y-125641028D02*
X160719371Y-125402933D01*
X160719371Y-125402933D02*
X160766990Y-125307695D01*
X160766990Y-125307695D02*
X160814609Y-125260076D01*
X160814609Y-125260076D02*
X160909847Y-125212457D01*
X160909847Y-125212457D02*
X161147942Y-125212457D01*
X161147942Y-125212457D02*
X161243180Y-125260076D01*
X161243180Y-125260076D02*
X161290800Y-125307695D01*
X161290800Y-125307695D02*
X161338419Y-125402933D01*
X161338419Y-125402933D02*
X161338419Y-125641028D01*
X161338419Y-125641028D02*
X161290800Y-125736266D01*
X161290800Y-125736266D02*
X161243180Y-125783885D01*
X160338419Y-124593409D02*
X160338419Y-124498171D01*
X160338419Y-124498171D02*
X160386038Y-124402933D01*
X160386038Y-124402933D02*
X160433657Y-124355314D01*
X160433657Y-124355314D02*
X160528895Y-124307695D01*
X160528895Y-124307695D02*
X160719371Y-124260076D01*
X160719371Y-124260076D02*
X160957466Y-124260076D01*
X160957466Y-124260076D02*
X161147942Y-124307695D01*
X161147942Y-124307695D02*
X161243180Y-124355314D01*
X161243180Y-124355314D02*
X161290800Y-124402933D01*
X161290800Y-124402933D02*
X161338419Y-124498171D01*
X161338419Y-124498171D02*
X161338419Y-124593409D01*
X161338419Y-124593409D02*
X161290800Y-124688647D01*
X161290800Y-124688647D02*
X161243180Y-124736266D01*
X161243180Y-124736266D02*
X161147942Y-124783885D01*
X161147942Y-124783885D02*
X160957466Y-124831504D01*
X160957466Y-124831504D02*
X160719371Y-124831504D01*
X160719371Y-124831504D02*
X160528895Y-124783885D01*
X160528895Y-124783885D02*
X160433657Y-124736266D01*
X160433657Y-124736266D02*
X160386038Y-124688647D01*
X160386038Y-124688647D02*
X160338419Y-124593409D01*
X160433657Y-123879123D02*
X160386038Y-123831504D01*
X160386038Y-123831504D02*
X160338419Y-123736266D01*
X160338419Y-123736266D02*
X160338419Y-123498171D01*
X160338419Y-123498171D02*
X160386038Y-123402933D01*
X160386038Y-123402933D02*
X160433657Y-123355314D01*
X160433657Y-123355314D02*
X160528895Y-123307695D01*
X160528895Y-123307695D02*
X160624133Y-123307695D01*
X160624133Y-123307695D02*
X160766990Y-123355314D01*
X160766990Y-123355314D02*
X161338419Y-123926742D01*
X161338419Y-123926742D02*
X161338419Y-123307695D01*
X177230952Y-99844819D02*
X176897619Y-99368628D01*
X176659524Y-99844819D02*
X176659524Y-98844819D01*
X176659524Y-98844819D02*
X177040476Y-98844819D01*
X177040476Y-98844819D02*
X177135714Y-98892438D01*
X177135714Y-98892438D02*
X177183333Y-98940057D01*
X177183333Y-98940057D02*
X177230952Y-99035295D01*
X177230952Y-99035295D02*
X177230952Y-99178152D01*
X177230952Y-99178152D02*
X177183333Y-99273390D01*
X177183333Y-99273390D02*
X177135714Y-99321009D01*
X177135714Y-99321009D02*
X177040476Y-99368628D01*
X177040476Y-99368628D02*
X176659524Y-99368628D01*
X178088095Y-99178152D02*
X178088095Y-99844819D01*
X177850000Y-98797200D02*
X177611905Y-99511485D01*
X177611905Y-99511485D02*
X178230952Y-99511485D01*
X178802381Y-98844819D02*
X178897619Y-98844819D01*
X178897619Y-98844819D02*
X178992857Y-98892438D01*
X178992857Y-98892438D02*
X179040476Y-98940057D01*
X179040476Y-98940057D02*
X179088095Y-99035295D01*
X179088095Y-99035295D02*
X179135714Y-99225771D01*
X179135714Y-99225771D02*
X179135714Y-99463866D01*
X179135714Y-99463866D02*
X179088095Y-99654342D01*
X179088095Y-99654342D02*
X179040476Y-99749580D01*
X179040476Y-99749580D02*
X178992857Y-99797200D01*
X178992857Y-99797200D02*
X178897619Y-99844819D01*
X178897619Y-99844819D02*
X178802381Y-99844819D01*
X178802381Y-99844819D02*
X178707143Y-99797200D01*
X178707143Y-99797200D02*
X178659524Y-99749580D01*
X178659524Y-99749580D02*
X178611905Y-99654342D01*
X178611905Y-99654342D02*
X178564286Y-99463866D01*
X178564286Y-99463866D02*
X178564286Y-99225771D01*
X178564286Y-99225771D02*
X178611905Y-99035295D01*
X178611905Y-99035295D02*
X178659524Y-98940057D01*
X178659524Y-98940057D02*
X178707143Y-98892438D01*
X178707143Y-98892438D02*
X178802381Y-98844819D01*
X179469048Y-98844819D02*
X180135714Y-98844819D01*
X180135714Y-98844819D02*
X179707143Y-99844819D01*
D12*
%TO.C,U201*%
X162413400Y-100974981D02*
X162413400Y-115174981D01*
X162413400Y-115174981D02*
X176613400Y-115174981D01*
X176613400Y-100974981D02*
X162413400Y-100974981D01*
X176613400Y-115174981D02*
X176613400Y-100974981D01*
X176813400Y-100774981D02*
X176113400Y-100774981D01*
X176813400Y-101474981D02*
X176813400Y-100774981D01*
%TO.C,J401*%
X186990200Y-46376400D02*
X186610200Y-46376400D01*
X186990200Y-44606400D02*
X186990200Y-46376400D01*
X186990200Y-42066400D02*
X186990200Y-42326400D01*
X179370200Y-46376400D02*
X179750200Y-46376400D01*
X179370200Y-46376400D02*
X179370200Y-44606400D01*
X179370200Y-42326400D02*
X179370200Y-42066400D01*
%TO.C,R2037*%
X179211500Y-69866742D02*
X179211500Y-70341258D01*
X178166500Y-69866742D02*
X178166500Y-70341258D01*
%TO.C,R2036*%
X180735500Y-69841342D02*
X180735500Y-70315858D01*
X179690500Y-69841342D02*
X179690500Y-70315858D01*
%TO.C,FB405*%
X186548079Y-50112200D02*
X186222521Y-50112200D01*
X186548079Y-51132200D02*
X186222521Y-51132200D01*
%TO.C,C2011*%
X195552600Y-113665580D02*
X195552600Y-113384420D01*
X196572600Y-113665580D02*
X196572600Y-113384420D01*
%TO.C,C2010*%
X210822000Y-112572220D02*
X210822000Y-112853380D01*
X209802000Y-112572220D02*
X209802000Y-112853380D01*
%TO.C,R211*%
X161238200Y-102793041D02*
X161238200Y-102485759D01*
X160478200Y-102793041D02*
X160478200Y-102485759D01*
%TO.C,C234*%
X162759564Y-117047600D02*
X162975236Y-117047600D01*
X162759564Y-116327600D02*
X162975236Y-116327600D01*
%TO.C,C233*%
X179726764Y-102645800D02*
X179942436Y-102645800D01*
X179726764Y-101925800D02*
X179942436Y-101925800D01*
%TO.C,C232*%
X178024200Y-115434164D02*
X178024200Y-115649836D01*
X178744200Y-115434164D02*
X178744200Y-115649836D01*
%TO.C,C231*%
X173694036Y-96185400D02*
X173478364Y-96185400D01*
X173694036Y-96905400D02*
X173478364Y-96905400D01*
%TO.C,C230*%
X160224236Y-100091600D02*
X160008564Y-100091600D01*
X160224236Y-99371600D02*
X160008564Y-99371600D01*
%TO.C,C229*%
X160226836Y-101096400D02*
X160011164Y-101096400D01*
X160226836Y-100376400D02*
X160011164Y-100376400D01*
%TO.C,C228*%
X175380764Y-99877200D02*
X175596436Y-99877200D01*
X175380764Y-99157200D02*
X175596436Y-99157200D01*
%TO.C,C227*%
X175380764Y-98886600D02*
X175596436Y-98886600D01*
X175380764Y-98166600D02*
X175596436Y-98166600D01*
%TO.C,C226*%
X173694036Y-99157200D02*
X173478364Y-99157200D01*
X173694036Y-99877200D02*
X173478364Y-99877200D01*
%TO.C,C225*%
X175380764Y-97896000D02*
X175596436Y-97896000D01*
X175380764Y-97176000D02*
X175596436Y-97176000D01*
%TO.C,C224*%
X173668636Y-97176000D02*
X173452964Y-97176000D01*
X173668636Y-97896000D02*
X173452964Y-97896000D01*
%TO.C,C223*%
X173668636Y-98166600D02*
X173452964Y-98166600D01*
X173668636Y-98886600D02*
X173452964Y-98886600D01*
%TO.C,FB404*%
X159700179Y-127226600D02*
X159374621Y-127226600D01*
X159700179Y-128246600D02*
X159374621Y-128246600D01*
%TO.C,R2030*%
X163660858Y-136840700D02*
X163186342Y-136840700D01*
X163660858Y-137885700D02*
X163186342Y-137885700D01*
%TO.C,R2029*%
X162162258Y-133691100D02*
X161687742Y-133691100D01*
X162162258Y-134736100D02*
X161687742Y-134736100D01*
%TO.C,D1404*%
X163885600Y-129922000D02*
X158375600Y-129922000D01*
X163885600Y-133222000D02*
X158375600Y-133222000D01*
X163885600Y-133222000D02*
X163885600Y-129922000D01*
%TO.C,C2009*%
X161963980Y-135253000D02*
X161682820Y-135253000D01*
X161963980Y-136273000D02*
X161682820Y-136273000D01*
%TO.C,C222*%
X159899236Y-128697400D02*
X159683564Y-128697400D01*
X159899236Y-129417400D02*
X159683564Y-129417400D01*
%TO.C,U502*%
X161847600Y-127924500D02*
X161517600Y-128164500D01*
X161517600Y-127684500D01*
X161847600Y-127924500D01*
G36*
X161847600Y-127924500D02*
G01*
X161517600Y-128164500D01*
X161517600Y-127684500D01*
X161847600Y-127924500D01*
G37*
X164917600Y-126624500D02*
X164917600Y-125824500D01*
X164917600Y-126624500D02*
X164917600Y-127424500D01*
X161797600Y-126624500D02*
X161797600Y-125824500D01*
X161797600Y-126624500D02*
X161797600Y-127424500D01*
%TO.C,Q2002*%
X209287000Y-114937100D02*
X209287000Y-114287100D01*
X209287000Y-114937100D02*
X209287000Y-115587100D01*
X206167000Y-114937100D02*
X206167000Y-114287100D01*
X206167000Y-114937100D02*
X206167000Y-115587100D01*
X206217000Y-116099600D02*
X205887000Y-116339600D01*
X205887000Y-115859600D01*
X206217000Y-116099600D01*
G36*
X206217000Y-116099600D02*
G01*
X205887000Y-116339600D01*
X205887000Y-115859600D01*
X206217000Y-116099600D01*
G37*
%TO.C,R2020*%
X211456758Y-114499600D02*
X210982242Y-114499600D01*
X211456758Y-115544600D02*
X210982242Y-115544600D01*
%TO.C,R2014*%
X211466758Y-115989600D02*
X210992242Y-115989600D01*
X211466758Y-117034600D02*
X210992242Y-117034600D01*
%TO.C,R2018*%
X211476758Y-118989600D02*
X211002242Y-118989600D01*
X211476758Y-120034600D02*
X211002242Y-120034600D01*
%TO.C,R2016*%
X211476758Y-117489600D02*
X211002242Y-117489600D01*
X211476758Y-118534600D02*
X211002242Y-118534600D01*
%TO.C,C2007*%
X204095300Y-118662720D02*
X204095300Y-118943880D01*
X203075300Y-118662720D02*
X203075300Y-118943880D01*
%TO.C,R2008*%
X202232000Y-95934358D02*
X202232000Y-95459842D01*
X203277000Y-95934358D02*
X203277000Y-95459842D01*
%TO.C,Q2003*%
X200414500Y-113540100D02*
X200084500Y-113300100D01*
X200414500Y-113060100D01*
X200414500Y-113540100D01*
G36*
X200414500Y-113540100D02*
G01*
X200084500Y-113300100D01*
X200414500Y-113060100D01*
X200414500Y-113540100D01*
G37*
X197014500Y-114462600D02*
X197014500Y-115112600D01*
X197014500Y-114462600D02*
X197014500Y-113812600D01*
X200134500Y-114462600D02*
X200134500Y-115112600D01*
X200134500Y-114462600D02*
X200134500Y-113812600D01*
%TO.C,Q2006*%
X197067700Y-119465100D02*
X196737700Y-119705100D01*
X196737700Y-119225100D01*
X197067700Y-119465100D01*
G36*
X197067700Y-119465100D02*
G01*
X196737700Y-119705100D01*
X196737700Y-119225100D01*
X197067700Y-119465100D01*
G37*
X197017700Y-118302600D02*
X197017700Y-118952600D01*
X197017700Y-118302600D02*
X197017700Y-117652600D01*
X200137700Y-118302600D02*
X200137700Y-118952600D01*
X200137700Y-118302600D02*
X200137700Y-117652600D01*
%TO.C,D2001*%
X197410400Y-92913700D02*
X197410400Y-95198700D01*
X198880400Y-95198700D02*
X198880400Y-92913700D01*
X197410400Y-95198700D02*
X198880400Y-95198700D01*
%TO.C,R2013*%
X194068858Y-120873133D02*
X193594342Y-120873133D01*
X194068858Y-119828133D02*
X193594342Y-119828133D01*
%TO.C,R2027*%
X206083158Y-122214600D02*
X205608642Y-122214600D01*
X206083158Y-121169600D02*
X205608642Y-121169600D01*
%TO.C,R2023*%
X210647058Y-122129400D02*
X210172542Y-122129400D01*
X210647058Y-121084400D02*
X210172542Y-121084400D01*
%TO.C,R2019*%
X194068958Y-115296000D02*
X193594442Y-115296000D01*
X194068958Y-116341000D02*
X193594442Y-116341000D01*
%TO.C,C2004*%
X199558520Y-97634100D02*
X199839680Y-97634100D01*
X199558520Y-96614100D02*
X199839680Y-96614100D01*
%TO.C,Q2008*%
X201016100Y-124521900D02*
X200686100Y-124281900D01*
X201016100Y-124041900D01*
X201016100Y-124521900D01*
G36*
X201016100Y-124521900D02*
G01*
X200686100Y-124281900D01*
X201016100Y-124041900D01*
X201016100Y-124521900D01*
G37*
X194096100Y-132121900D02*
X194096100Y-125701900D01*
X200996100Y-132121900D02*
X200996100Y-125701900D01*
X194096100Y-125701900D02*
X194366100Y-125701900D01*
X200996100Y-125701900D02*
X200726100Y-125701900D01*
%TO.C,J2005*%
X202179200Y-133899600D02*
X201679200Y-133899600D01*
X201679200Y-133899600D02*
X201929200Y-134399600D01*
X201929200Y-134399600D02*
X202179200Y-133899600D01*
%TO.C,R2025*%
X208065800Y-119586358D02*
X208065800Y-119111842D01*
X209110800Y-119586358D02*
X209110800Y-119111842D01*
%TO.C,C2006*%
X191825200Y-127861748D02*
X191825200Y-129284252D01*
X193645200Y-127861748D02*
X193645200Y-129284252D01*
%TO.C,R2034*%
X204119500Y-113865842D02*
X204119500Y-114340358D01*
X205164500Y-113865842D02*
X205164500Y-114340358D01*
%TO.C,C2005*%
X211755900Y-128638352D02*
X211755900Y-127215848D01*
X213575900Y-128638352D02*
X213575900Y-127215848D01*
%TO.C,R2035*%
X201258600Y-113954242D02*
X201258600Y-114428758D01*
X202303600Y-113954242D02*
X202303600Y-114428758D01*
%TO.C,J1801*%
X202844400Y-81220000D02*
X207984400Y-81220000D01*
X207984400Y-83880000D02*
X207984400Y-81220000D01*
X202844400Y-83880000D02*
X202844400Y-81220000D01*
X202844400Y-83880000D02*
X207984400Y-83880000D01*
X201574400Y-83880000D02*
X200244400Y-83880000D01*
X200244400Y-83880000D02*
X200244400Y-82550000D01*
%TO.C,D2002*%
X195226000Y-92984200D02*
X195226000Y-95269200D01*
X196696000Y-95269200D02*
X196696000Y-92984200D01*
X195226000Y-95269200D02*
X196696000Y-95269200D01*
%TO.C,R2026*%
X195569800Y-121199758D02*
X195569800Y-120725242D01*
X196614800Y-121199758D02*
X196614800Y-120725242D01*
%TO.C,U2001*%
X206149500Y-99282100D02*
X205819500Y-99042100D01*
X206149500Y-98802100D01*
X206149500Y-99282100D01*
G36*
X206149500Y-99282100D02*
G01*
X205819500Y-99042100D01*
X206149500Y-98802100D01*
X206149500Y-99282100D01*
G37*
X200794500Y-101742100D02*
X200794500Y-103692100D01*
X200794500Y-101742100D02*
X200794500Y-99792100D01*
X205914500Y-101742100D02*
X205914500Y-103692100D01*
X205914500Y-101742100D02*
X205914500Y-99792100D01*
%TO.C,Q2001*%
X206394500Y-109787100D02*
X206064500Y-109547100D01*
X206394500Y-109307100D01*
X206394500Y-109787100D01*
G36*
X206394500Y-109787100D02*
G01*
X206064500Y-109547100D01*
X206394500Y-109307100D01*
X206394500Y-109787100D01*
G37*
X202994500Y-110709600D02*
X202994500Y-111359600D01*
X202994500Y-110709600D02*
X202994500Y-110059600D01*
X206114500Y-110709600D02*
X206114500Y-111359600D01*
X206114500Y-110709600D02*
X206114500Y-110059600D01*
%TO.C,Q2005*%
X207914500Y-117997100D02*
X207584500Y-117757100D01*
X207914500Y-117517100D01*
X207914500Y-117997100D01*
G36*
X207914500Y-117997100D02*
G01*
X207584500Y-117757100D01*
X207914500Y-117517100D01*
X207914500Y-117997100D01*
G37*
X204514500Y-118919600D02*
X204514500Y-119569600D01*
X204514500Y-118919600D02*
X204514500Y-118269600D01*
X207634500Y-118919600D02*
X207634500Y-119569600D01*
X207634500Y-118919600D02*
X207634500Y-118269600D01*
%TO.C,R2007*%
X203782000Y-95939358D02*
X203782000Y-95464842D01*
X204827000Y-95939358D02*
X204827000Y-95464842D01*
%TO.C,R2006*%
X200832000Y-91089358D02*
X200832000Y-90614842D01*
X201877000Y-91089358D02*
X201877000Y-90614842D01*
%TO.C,C2002*%
X207727500Y-101313920D02*
X207727500Y-101595080D01*
X206707500Y-101313920D02*
X206707500Y-101595080D01*
%TO.C,Q2004*%
X199445100Y-111764300D02*
X199115100Y-112004300D01*
X199115100Y-111524300D01*
X199445100Y-111764300D01*
G36*
X199445100Y-111764300D02*
G01*
X199115100Y-112004300D01*
X199115100Y-111524300D01*
X199445100Y-111764300D01*
G37*
X199395100Y-110601800D02*
X199395100Y-111251800D01*
X199395100Y-110601800D02*
X199395100Y-109951800D01*
X202515100Y-110601800D02*
X202515100Y-111251800D01*
X202515100Y-110601800D02*
X202515100Y-109951800D01*
%TO.C,R2004*%
X203812000Y-91089358D02*
X203812000Y-90614842D01*
X204857000Y-91089358D02*
X204857000Y-90614842D01*
%TO.C,R2003*%
X202322000Y-91089358D02*
X202322000Y-90614842D01*
X203367000Y-91089358D02*
X203367000Y-90614842D01*
%TO.C,R2022*%
X196483500Y-90877658D02*
X196483500Y-90403142D01*
X195438500Y-90877658D02*
X195438500Y-90403142D01*
%TO.C,C2003*%
X197654500Y-101677680D02*
X197654500Y-101396520D01*
X198674500Y-101677680D02*
X198674500Y-101396520D01*
%TO.C,R2005*%
X205302000Y-91089358D02*
X205302000Y-90614842D01*
X206347000Y-91089358D02*
X206347000Y-90614842D01*
%TO.C,Q2007*%
X211308400Y-124392100D02*
X210978400Y-124152100D01*
X211308400Y-123912100D01*
X211308400Y-124392100D01*
G36*
X211308400Y-124392100D02*
G01*
X210978400Y-124152100D01*
X211308400Y-123912100D01*
X211308400Y-124392100D01*
G37*
X204388400Y-131992100D02*
X204388400Y-125572100D01*
X211288400Y-131992100D02*
X211288400Y-125572100D01*
X204388400Y-125572100D02*
X204658400Y-125572100D01*
X211288400Y-125572100D02*
X211018400Y-125572100D01*
%TO.C,R2024*%
X195544400Y-116792358D02*
X195544400Y-116317842D01*
X196589400Y-116792358D02*
X196589400Y-116317842D01*
%TO.C,R2009*%
X199202000Y-101279842D02*
X199202000Y-101754358D01*
X200247000Y-101279842D02*
X200247000Y-101754358D01*
%TO.C,R2015*%
X194068858Y-119359800D02*
X193594342Y-119359800D01*
X194068858Y-118314800D02*
X193594342Y-118314800D01*
%TO.C,C2001*%
X203740080Y-93747100D02*
X203458920Y-93747100D01*
X203740080Y-92727100D02*
X203458920Y-92727100D01*
%TO.C,R2010*%
X203167200Y-107392958D02*
X203167200Y-106918442D01*
X202122200Y-107392958D02*
X202122200Y-106918442D01*
%TO.C,R2021*%
X198718700Y-90826858D02*
X198718700Y-90352342D01*
X197673700Y-90826858D02*
X197673700Y-90352342D01*
%TO.C,R2017*%
X194068958Y-117854334D02*
X193594442Y-117854334D01*
X194068958Y-116809334D02*
X193594442Y-116809334D01*
%TO.C,R2032*%
X204680242Y-108402600D02*
X205154758Y-108402600D01*
X204680242Y-107357600D02*
X205154758Y-107357600D01*
%TO.C,C2008*%
X201555300Y-118905480D02*
X201555300Y-118624320D01*
X200535300Y-118905480D02*
X200535300Y-118624320D01*
%TO.C,R2028*%
X198949858Y-121338400D02*
X198475342Y-121338400D01*
X198949858Y-122383400D02*
X198475342Y-122383400D01*
%TO.C,R2031*%
X200633558Y-107332200D02*
X200159042Y-107332200D01*
X200633558Y-108377200D02*
X200159042Y-108377200D01*
%TO.C,J1802*%
X204459000Y-42129400D02*
X207059000Y-42129400D01*
X207059000Y-44789400D02*
X207059000Y-42129400D01*
X204459000Y-44789400D02*
X204459000Y-42129400D01*
X204459000Y-44789400D02*
X207059000Y-44789400D01*
X203189000Y-44789400D02*
X201859000Y-44789400D01*
X201859000Y-44789400D02*
X201859000Y-43459400D01*
%TO.C,R212*%
X144583664Y-107491578D02*
X145058180Y-107491578D01*
X144583664Y-106446578D02*
X145058180Y-106446578D01*
%TO.C,R1001*%
X182450922Y-109263667D02*
X182450922Y-108789151D01*
X181405922Y-109263667D02*
X181405922Y-108789151D01*
%TO.C,R208*%
X152384563Y-105859078D02*
X152077281Y-105859078D01*
X152384563Y-105099078D02*
X152077281Y-105099078D01*
%TO.C,R404*%
X186550172Y-83439652D02*
X186550172Y-83765210D01*
X185530172Y-83439652D02*
X185530172Y-83765210D01*
%TO.C,D1402*%
X147550922Y-49079078D02*
X147550922Y-52379078D01*
X147550922Y-49079078D02*
X153060922Y-49079078D01*
X147550922Y-52379078D02*
X153060922Y-52379078D01*
%TO.C,C309*%
X166655279Y-59660000D02*
X166329721Y-59660000D01*
X166655279Y-58640000D02*
X166329721Y-58640000D01*
%TO.C,R203*%
X160950000Y-107996359D02*
X160950000Y-108303641D01*
X160190000Y-107996359D02*
X160190000Y-108303641D01*
%TO.C,R1301*%
X182450922Y-99029383D02*
X182450922Y-98554867D01*
X181405922Y-99029383D02*
X181405922Y-98554867D01*
%TO.C,C312*%
X177850000Y-53545580D02*
X177850000Y-53264420D01*
X176830000Y-53545580D02*
X176830000Y-53264420D01*
%TO.C,C402*%
X189536476Y-71852710D02*
X189536476Y-71527152D01*
X188516476Y-71852710D02*
X188516476Y-71527152D01*
%TO.C,R801*%
X182450922Y-116086523D02*
X182450922Y-115612007D01*
X181405922Y-116086523D02*
X181405922Y-115612007D01*
%TO.C,R409*%
X176431393Y-91134534D02*
X176095860Y-91470067D01*
X175692466Y-90395607D02*
X175356933Y-90731140D01*
%TO.C,D701*%
X188053422Y-120770693D02*
X188053422Y-118485693D01*
X186583422Y-120770693D02*
X188053422Y-120770693D01*
X186583422Y-118485693D02*
X186583422Y-120770693D01*
%TO.C,C403*%
X185445279Y-49520000D02*
X185119721Y-49520000D01*
X185445279Y-48500000D02*
X185119721Y-48500000D01*
%TO.C,J1701*%
X147330922Y-64793574D02*
X147330922Y-64293574D01*
X147330922Y-64293574D02*
X146830922Y-64543574D01*
X146830922Y-64543574D02*
X147330922Y-64793574D01*
%TO.C,U501*%
X175645922Y-124029981D02*
X175315922Y-123789981D01*
X175645922Y-123549981D01*
X175645922Y-124029981D01*
G36*
X175645922Y-124029981D02*
G01*
X175315922Y-123789981D01*
X175645922Y-123549981D01*
X175645922Y-124029981D01*
G37*
X175590922Y-128999981D02*
X175315922Y-128999981D01*
X175590922Y-126689981D02*
X175590922Y-128999981D01*
X175590922Y-126689981D02*
X175590922Y-124379981D01*
X175590922Y-124379981D02*
X175315922Y-124379981D01*
X165670922Y-128999981D02*
X165945922Y-128999981D01*
X165670922Y-126689981D02*
X165670922Y-128999981D01*
X165670922Y-126689981D02*
X165670922Y-124379981D01*
X165670922Y-124379981D02*
X165945922Y-124379981D01*
%TO.C,R1302*%
X189320922Y-99244349D02*
X189320922Y-98734901D01*
X188275922Y-99244349D02*
X188275922Y-98734901D01*
%TO.C,J1501*%
X147330922Y-82415073D02*
X147330922Y-81915073D01*
X147330922Y-81915073D02*
X146830922Y-82165073D01*
X146830922Y-82165073D02*
X147330922Y-82415073D01*
%TO.C,C409*%
X176051197Y-76012431D02*
X176376755Y-76012431D01*
X176051197Y-74992431D02*
X176376755Y-74992431D01*
%TO.C,D1701*%
X154538422Y-59695073D02*
X149028422Y-59695073D01*
X154538422Y-62995073D02*
X149028422Y-62995073D01*
X154538422Y-62995073D02*
X154538422Y-59695073D01*
%TO.C,C220*%
X179308758Y-121119078D02*
X179093086Y-121119078D01*
X179308758Y-120399078D02*
X179093086Y-120399078D01*
%TO.C,R1002*%
X189320922Y-109478633D02*
X189320922Y-108969185D01*
X188275922Y-109478633D02*
X188275922Y-108969185D01*
%TO.C,R209*%
X155746359Y-100610000D02*
X156053641Y-100610000D01*
X155746359Y-99850000D02*
X156053641Y-99850000D01*
%TO.C,C302*%
X158580580Y-51550000D02*
X158299420Y-51550000D01*
X158580580Y-50530000D02*
X158299420Y-50530000D01*
%TO.C,C308*%
X180344420Y-56430000D02*
X180625580Y-56430000D01*
X180344420Y-55410000D02*
X180625580Y-55410000D01*
%TO.C,R701*%
X182450922Y-119497951D02*
X182450922Y-119023435D01*
X181405922Y-119497951D02*
X181405922Y-119023435D01*
%TO.C,R408*%
X178489630Y-88619097D02*
X178154097Y-88954630D01*
X177750703Y-87880170D02*
X177415170Y-88215703D01*
%TO.C,C501*%
X177712500Y-132977258D02*
X177712500Y-132502742D01*
X176667500Y-132977258D02*
X176667500Y-132502742D01*
%TO.C,R1101*%
X182450922Y-105852239D02*
X182450922Y-105377723D01*
X181405922Y-105852239D02*
X181405922Y-105377723D01*
%TO.C,R1202*%
X189320922Y-102655777D02*
X189320922Y-102146329D01*
X188275922Y-102655777D02*
X188275922Y-102146329D01*
%TO.C,C415*%
X184174476Y-91927652D02*
X184174476Y-92253210D01*
X183154476Y-91927652D02*
X183154476Y-92253210D01*
%TO.C,R307*%
X166628080Y-58030000D02*
X166346920Y-58030000D01*
X166628080Y-57010000D02*
X166346920Y-57010000D01*
%TO.C,U403*%
X182273372Y-77237531D02*
G75*
G02*
X182073372Y-77237531I-100000J0D01*
G01*
X182073372Y-77237531D02*
G75*
G02*
X182273372Y-77237531I100000J0D01*
G01*
X183073372Y-85437531D02*
X182273372Y-85437531D01*
X183073372Y-84637531D02*
X183073372Y-85437531D01*
X183073372Y-78337531D02*
X183073372Y-78037531D01*
X183073372Y-78037531D02*
X182473372Y-77437531D01*
X182473372Y-77437531D02*
X182173372Y-77437531D01*
X175073372Y-85437531D02*
X175873372Y-85437531D01*
X175073372Y-84637531D02*
X175073372Y-85437531D01*
X175073372Y-78237531D02*
X175073372Y-77437531D01*
X175073372Y-77437531D02*
X175873372Y-77437531D01*
%TO.C,FB401*%
X183179721Y-51050000D02*
X183505279Y-51050000D01*
X183179721Y-50030000D02*
X183505279Y-50030000D01*
%TO.C,L302*%
X167979622Y-53360000D02*
X167180378Y-53360000D01*
X167979622Y-52240000D02*
X167180378Y-52240000D01*
%TO.C,R410*%
X172918976Y-65017189D02*
X172918976Y-64542673D01*
X171873976Y-65017189D02*
X171873976Y-64542673D01*
%TO.C,FB402*%
X184762172Y-74039652D02*
X184762172Y-74365210D01*
X183742172Y-74039652D02*
X183742172Y-74365210D01*
%TO.C,Q1101*%
X183465922Y-104149981D02*
X183225922Y-103819981D01*
X183705922Y-103819981D01*
X183465922Y-104149981D01*
G36*
X183465922Y-104149981D02*
G01*
X183225922Y-103819981D01*
X183705922Y-103819981D01*
X183465922Y-104149981D01*
G37*
X184628422Y-107219981D02*
X185278422Y-107219981D01*
X184628422Y-107219981D02*
X183978422Y-107219981D01*
X184628422Y-104099981D02*
X185278422Y-104099981D01*
X184628422Y-104099981D02*
X183978422Y-104099981D01*
%TO.C,D1501*%
X154538422Y-77316572D02*
X149028422Y-77316572D01*
X154538422Y-80616572D02*
X149028422Y-80616572D01*
X154538422Y-80616572D02*
X154538422Y-77316572D01*
%TO.C,D801*%
X188053422Y-117359265D02*
X188053422Y-115074265D01*
X186583422Y-117359265D02*
X188053422Y-117359265D01*
X186583422Y-115074265D02*
X186583422Y-117359265D01*
%TO.C,R305*%
X179619420Y-49790000D02*
X179900580Y-49790000D01*
X179619420Y-48770000D02*
X179900580Y-48770000D01*
%TO.C,R1102*%
X189320922Y-106067205D02*
X189320922Y-105557757D01*
X188275922Y-106067205D02*
X188275922Y-105557757D01*
%TO.C,D1201*%
X188053422Y-103713553D02*
X188053422Y-101428553D01*
X186583422Y-103713553D02*
X188053422Y-103713553D01*
X186583422Y-101428553D02*
X186583422Y-103713553D01*
%TO.C,R204*%
X159967281Y-105499078D02*
X160274563Y-105499078D01*
X159967281Y-104739078D02*
X160274563Y-104739078D01*
%TO.C,R1904*%
X148816164Y-99960571D02*
X149290680Y-99960571D01*
X148816164Y-98915571D02*
X149290680Y-98915571D01*
%TO.C,R601*%
X182450922Y-122909379D02*
X182450922Y-122434863D01*
X181405922Y-122909379D02*
X181405922Y-122434863D01*
%TO.C,R802*%
X189320922Y-116301489D02*
X189320922Y-115792041D01*
X188275922Y-116301489D02*
X188275922Y-115792041D01*
%TO.C,D1702*%
X147550922Y-66700577D02*
X147550922Y-70000577D01*
X147550922Y-66700577D02*
X153060922Y-66700577D01*
X147550922Y-70000577D02*
X153060922Y-70000577D01*
%TO.C,R902*%
X189320922Y-112890061D02*
X189320922Y-112380613D01*
X188275922Y-112890061D02*
X188275922Y-112380613D01*
%TO.C,D1301*%
X188053422Y-100302125D02*
X188053422Y-98017125D01*
X186583422Y-100302125D02*
X188053422Y-100302125D01*
X186583422Y-98017125D02*
X186583422Y-100302125D01*
%TO.C,R210*%
X152424563Y-106939078D02*
X152117281Y-106939078D01*
X152424563Y-106179078D02*
X152117281Y-106179078D01*
%TO.C,R505*%
X174692500Y-132502742D02*
X174692500Y-132977258D01*
X173647500Y-132502742D02*
X173647500Y-132977258D01*
%TO.C,R306*%
X166615580Y-61190000D02*
X166334420Y-61190000D01*
X166615580Y-60170000D02*
X166334420Y-60170000D01*
%TO.C,R403*%
X189550172Y-76465210D02*
X189550172Y-76139652D01*
X188530172Y-76465210D02*
X188530172Y-76139652D01*
%TO.C,C411*%
X176509951Y-74420931D02*
X176184393Y-74420931D01*
X176509951Y-73400931D02*
X176184393Y-73400931D01*
%TO.C,R201*%
X159700922Y-114582719D02*
X159700922Y-114275437D01*
X158940922Y-114582719D02*
X158940922Y-114275437D01*
%TO.C,D1001*%
X188053422Y-110536409D02*
X188053422Y-108251409D01*
X186583422Y-110536409D02*
X188053422Y-110536409D01*
X186583422Y-108251409D02*
X186583422Y-110536409D01*
%TO.C,R1903*%
X148816164Y-82339072D02*
X149290680Y-82339072D01*
X148816164Y-81294072D02*
X149290680Y-81294072D01*
%TO.C,Q1301*%
X183465922Y-97327125D02*
X183225922Y-96997125D01*
X183705922Y-96997125D01*
X183465922Y-97327125D01*
G36*
X183465922Y-97327125D02*
G01*
X183225922Y-96997125D01*
X183705922Y-96997125D01*
X183465922Y-97327125D01*
G37*
X184628422Y-100397125D02*
X185278422Y-100397125D01*
X184628422Y-100397125D02*
X183978422Y-100397125D01*
X184628422Y-97277125D02*
X185278422Y-97277125D01*
X184628422Y-97277125D02*
X183978422Y-97277125D01*
%TO.C,C221*%
X157773086Y-109019078D02*
X157988758Y-109019078D01*
X157773086Y-108299078D02*
X157988758Y-108299078D01*
%TO.C,D1101*%
X188053422Y-107124981D02*
X188053422Y-104839981D01*
X186583422Y-107124981D02*
X188053422Y-107124981D01*
X186583422Y-104839981D02*
X186583422Y-107124981D01*
%TO.C,U303*%
X167160000Y-56000000D02*
X166880000Y-55720000D01*
X167160000Y-55720000D01*
X167160000Y-56000000D01*
G36*
X167160000Y-56000000D02*
G01*
X166880000Y-55720000D01*
X167160000Y-55720000D01*
X167160000Y-56000000D01*
G37*
X168960000Y-54370000D02*
X168960000Y-55670000D01*
X167160000Y-54370000D02*
X167160000Y-55470000D01*
%TO.C,C410*%
X181762172Y-74039652D02*
X181762172Y-74365210D01*
X180742172Y-74039652D02*
X180742172Y-74365210D01*
%TO.C,R506*%
X167928180Y-135682481D02*
X167453664Y-135682481D01*
X167928180Y-134637481D02*
X167453664Y-134637481D01*
%TO.C,C408*%
X185402951Y-77212431D02*
X185077393Y-77212431D01*
X185402951Y-76192431D02*
X185077393Y-76192431D01*
%TO.C,J201*%
X161050922Y-57789981D02*
X161050922Y-98549981D01*
X158450922Y-60389981D02*
X158450922Y-57789981D01*
X158450922Y-57789981D02*
X161050922Y-57789981D01*
X155850922Y-98549981D02*
X161050922Y-98549981D01*
X155850922Y-60389981D02*
X158450922Y-60389981D01*
X155850922Y-60389981D02*
X155850922Y-98549981D01*
X155850922Y-59119981D02*
X155850922Y-57789981D01*
X155850922Y-57789981D02*
X157180922Y-57789981D01*
%TO.C,X201*%
X180260922Y-119659078D02*
X179760922Y-120059078D01*
X180260922Y-116659078D02*
X180260922Y-119659078D01*
X179760922Y-120059078D02*
X176660922Y-120059078D01*
X176660922Y-120059078D02*
X176660922Y-116659078D01*
X176660922Y-116659078D02*
X180260922Y-116659078D01*
%TO.C,C209*%
X148532600Y-114596364D02*
X148532600Y-114812036D01*
X149252600Y-114596364D02*
X149252600Y-114812036D01*
%TO.C,D1401*%
X154538422Y-42073574D02*
X149028422Y-42073574D01*
X154538422Y-45373574D02*
X149028422Y-45373574D01*
X154538422Y-45373574D02*
X154538422Y-42073574D01*
%TO.C,R304*%
X166935580Y-51430000D02*
X166654420Y-51430000D01*
X166935580Y-50410000D02*
X166654420Y-50410000D01*
%TO.C,C414*%
X189636476Y-91915210D02*
X189636476Y-91589652D01*
X188616476Y-91915210D02*
X188616476Y-91589652D01*
%TO.C,Q201*%
X146620922Y-111329078D02*
X146140922Y-111329078D01*
X146380922Y-110999078D01*
X146620922Y-111329078D01*
G36*
X146620922Y-111329078D02*
G01*
X146140922Y-111329078D01*
X146380922Y-110999078D01*
X146620922Y-111329078D01*
G37*
X145218422Y-111049078D02*
X145868422Y-111049078D01*
X145218422Y-111049078D02*
X144568422Y-111049078D01*
X145218422Y-107929078D02*
X145868422Y-107929078D01*
X145218422Y-107929078D02*
X144568422Y-107929078D01*
%TO.C,D1601*%
X154538422Y-94938071D02*
X149028422Y-94938071D01*
X154538422Y-98238071D02*
X149028422Y-98238071D01*
X154538422Y-98238071D02*
X154538422Y-94938071D01*
%TO.C,Q801*%
X183465922Y-114384265D02*
X183225922Y-114054265D01*
X183705922Y-114054265D01*
X183465922Y-114384265D01*
G36*
X183465922Y-114384265D02*
G01*
X183225922Y-114054265D01*
X183705922Y-114054265D01*
X183465922Y-114384265D01*
G37*
X184628422Y-117454265D02*
X185278422Y-117454265D01*
X184628422Y-117454265D02*
X183978422Y-117454265D01*
X184628422Y-114334265D02*
X185278422Y-114334265D01*
X184628422Y-114334265D02*
X183978422Y-114334265D01*
%TO.C,R407*%
X178587258Y-98482500D02*
X178112742Y-98482500D01*
X178587258Y-97437500D02*
X178112742Y-97437500D01*
%TO.C,R501*%
X176192500Y-132997258D02*
X176192500Y-132522742D01*
X175147500Y-132997258D02*
X175147500Y-132522742D01*
%TO.C,D601*%
X188053422Y-124182121D02*
X188053422Y-121897121D01*
X186583422Y-124182121D02*
X188053422Y-124182121D01*
X186583422Y-121897121D02*
X186583422Y-124182121D01*
%TO.C,J1601*%
X147330922Y-100036572D02*
X147330922Y-99536572D01*
X147330922Y-99536572D02*
X146830922Y-99786572D01*
X146830922Y-99786572D02*
X147330922Y-100036572D01*
%TO.C,D901*%
X188053422Y-113947837D02*
X188053422Y-111662837D01*
X186583422Y-113947837D02*
X188053422Y-113947837D01*
X186583422Y-111662837D02*
X186583422Y-113947837D01*
%TO.C,R205*%
X160184563Y-111089078D02*
X159877281Y-111089078D01*
X160184563Y-110329078D02*
X159877281Y-110329078D01*
%TO.C,C404*%
X186677393Y-86412431D02*
X187002951Y-86412431D01*
X186677393Y-85392431D02*
X187002951Y-85392431D01*
%TO.C,Q1001*%
X183465922Y-107561409D02*
X183225922Y-107231409D01*
X183705922Y-107231409D01*
X183465922Y-107561409D01*
G36*
X183465922Y-107561409D02*
G01*
X183225922Y-107231409D01*
X183705922Y-107231409D01*
X183465922Y-107561409D01*
G37*
X184628422Y-110631409D02*
X185278422Y-110631409D01*
X184628422Y-110631409D02*
X183978422Y-110631409D01*
X184628422Y-107511409D02*
X185278422Y-107511409D01*
X184628422Y-107511409D02*
X183978422Y-107511409D01*
%TO.C,D401*%
X173171476Y-70274931D02*
X173171476Y-67989931D01*
X171701476Y-70274931D02*
X173171476Y-70274931D01*
X171701476Y-67989931D02*
X171701476Y-70274931D01*
%TO.C,R1201*%
X182450922Y-102440811D02*
X182450922Y-101966295D01*
X181405922Y-102440811D02*
X181405922Y-101966295D01*
%TO.C,R402*%
X186382197Y-69619431D02*
X186707755Y-69619431D01*
X186382197Y-68599431D02*
X186707755Y-68599431D01*
%TO.C,TP401*%
X186826476Y-88402431D02*
G75*
G02*
X185426476Y-88402431I-700000J0D01*
G01*
X185426476Y-88402431D02*
G75*
G02*
X186826476Y-88402431I700000J0D01*
G01*
%TO.C,J1401*%
X147330922Y-47172075D02*
X147330922Y-46672075D01*
X147330922Y-46672075D02*
X146830922Y-46922075D01*
X146830922Y-46922075D02*
X147330922Y-47172075D01*
%TO.C,C405*%
X184836476Y-87739652D02*
X184836476Y-88065210D01*
X183816476Y-87739652D02*
X183816476Y-88065210D01*
%TO.C,Q1201*%
X183465922Y-100738553D02*
X183225922Y-100408553D01*
X183705922Y-100408553D01*
X183465922Y-100738553D01*
G36*
X183465922Y-100738553D02*
G01*
X183225922Y-100408553D01*
X183705922Y-100408553D01*
X183465922Y-100738553D01*
G37*
X184628422Y-103808553D02*
X185278422Y-103808553D01*
X184628422Y-103808553D02*
X183978422Y-103808553D01*
X184628422Y-100688553D02*
X185278422Y-100688553D01*
X184628422Y-100688553D02*
X183978422Y-100688553D01*
%TO.C,C401*%
X188415451Y-74512431D02*
X188089893Y-74512431D01*
X188415451Y-73492431D02*
X188089893Y-73492431D01*
%TO.C,C311*%
X165140000Y-55380580D02*
X165140000Y-55099420D01*
X164120000Y-55380580D02*
X164120000Y-55099420D01*
%TO.C,U202*%
X158635922Y-104339078D02*
X158635922Y-107339078D01*
X153415922Y-101339078D02*
X153415922Y-107339078D01*
%TO.C,R1901*%
X148816164Y-47096074D02*
X149290680Y-47096074D01*
X148816164Y-46051074D02*
X149290680Y-46051074D01*
%TO.C,R502*%
X171722500Y-132972239D02*
X171722500Y-132497723D01*
X170677500Y-132972239D02*
X170677500Y-132497723D01*
%TO.C,D1602*%
X150748000Y-101950800D02*
X150748000Y-107460800D01*
X150748000Y-101950800D02*
X147448000Y-101950800D01*
X147448000Y-101950800D02*
X147448000Y-107460800D01*
%TO.C,R602*%
X189320922Y-123124345D02*
X189320922Y-122614897D01*
X188275922Y-123124345D02*
X188275922Y-122614897D01*
%TO.C,R202*%
X149720100Y-114876458D02*
X149720100Y-114401942D01*
X150765100Y-114876458D02*
X150765100Y-114401942D01*
%TO.C,R1602*%
X149285680Y-101520571D02*
X148811164Y-101520571D01*
X149285680Y-100475571D02*
X148811164Y-100475571D01*
%TO.C,C214*%
X159950922Y-108051242D02*
X159950922Y-108266914D01*
X159230922Y-108051242D02*
X159230922Y-108266914D01*
%TO.C,U401*%
X185629615Y-81672431D02*
G75*
G02*
X185450729Y-81672431I-89443J0D01*
G01*
X185450729Y-81672431D02*
G75*
G02*
X185629615Y-81672431I89443J0D01*
G01*
X188750172Y-81002431D02*
X188750172Y-79202431D01*
X185530172Y-79202431D02*
X185530172Y-81652431D01*
%TO.C,Q901*%
X183465922Y-110972837D02*
X183225922Y-110642837D01*
X183705922Y-110642837D01*
X183465922Y-110972837D01*
G36*
X183465922Y-110972837D02*
G01*
X183225922Y-110642837D01*
X183705922Y-110642837D01*
X183465922Y-110972837D01*
G37*
X184628422Y-114042837D02*
X185278422Y-114042837D01*
X184628422Y-114042837D02*
X183978422Y-114042837D01*
X184628422Y-110922837D02*
X185278422Y-110922837D01*
X184628422Y-110922837D02*
X183978422Y-110922837D01*
%TO.C,L303*%
X179189622Y-51600000D02*
X178390378Y-51600000D01*
X179189622Y-50480000D02*
X178390378Y-50480000D01*
%TO.C,R406*%
X180250172Y-74039652D02*
X180250172Y-74365210D01*
X179230172Y-74039652D02*
X179230172Y-74365210D01*
%TO.C,U402*%
X188226476Y-70389931D02*
G75*
G02*
X188026476Y-70389931I-100000J0D01*
G01*
X188026476Y-70389931D02*
G75*
G02*
X188226476Y-70389931I100000J0D01*
G01*
X188126476Y-70389931D02*
X186986476Y-70389931D01*
%TO.C,D201*%
X143195922Y-109874078D02*
X143195922Y-107589078D01*
X141725922Y-109874078D02*
X143195922Y-109874078D01*
X141725922Y-107589078D02*
X141725922Y-109874078D01*
%TO.C,U304*%
X178580000Y-54530000D02*
X178300000Y-54250000D01*
X178580000Y-54250000D01*
X178580000Y-54530000D01*
G36*
X178580000Y-54530000D02*
G01*
X178300000Y-54250000D01*
X178580000Y-54250000D01*
X178580000Y-54530000D01*
G37*
X180380000Y-52900000D02*
X180380000Y-54200000D01*
X178580000Y-52900000D02*
X178580000Y-54000000D01*
%TO.C,C503*%
X168792500Y-133032277D02*
X168792500Y-132557761D01*
X167747500Y-133032277D02*
X167747500Y-132557761D01*
%TO.C,R1502*%
X149285680Y-83899072D02*
X148811164Y-83899072D01*
X149285680Y-82854072D02*
X148811164Y-82854072D01*
%TO.C,R504*%
X165842500Y-132532742D02*
X165842500Y-133007258D01*
X164797500Y-132532742D02*
X164797500Y-133007258D01*
%TO.C,R411*%
X175428976Y-65017189D02*
X175428976Y-64542673D01*
X174383976Y-65017189D02*
X174383976Y-64542673D01*
%TO.C,C406*%
X183336476Y-87339652D02*
X183336476Y-87665210D01*
X182316476Y-87339652D02*
X182316476Y-87665210D01*
%TO.C,R308*%
X177510580Y-57790000D02*
X177229420Y-57790000D01*
X177510580Y-56770000D02*
X177229420Y-56770000D01*
%TO.C,C313*%
X166640000Y-55350580D02*
X166640000Y-55069420D01*
X165620000Y-55350580D02*
X165620000Y-55069420D01*
%TO.C,R309*%
X177565580Y-56230000D02*
X177284420Y-56230000D01*
X177565580Y-55210000D02*
X177284420Y-55210000D01*
%TO.C,R1905*%
X148816164Y-64717573D02*
X149290680Y-64717573D01*
X148816164Y-63672573D02*
X149290680Y-63672573D01*
%TO.C,Q601*%
X183465922Y-121207121D02*
X183225922Y-120877121D01*
X183705922Y-120877121D01*
X183465922Y-121207121D01*
G36*
X183465922Y-121207121D02*
G01*
X183225922Y-120877121D01*
X183705922Y-120877121D01*
X183465922Y-121207121D01*
G37*
X184628422Y-124277121D02*
X185278422Y-124277121D01*
X184628422Y-124277121D02*
X183978422Y-124277121D01*
X184628422Y-121157121D02*
X185278422Y-121157121D01*
X184628422Y-121157121D02*
X183978422Y-121157121D01*
%TO.C,R405*%
X188933200Y-83586182D02*
X188933200Y-83278900D01*
X188173200Y-83586182D02*
X188173200Y-83278900D01*
%TO.C,C407*%
X174350172Y-85265210D02*
X174350172Y-84939652D01*
X173330172Y-85265210D02*
X173330172Y-84939652D01*
%TO.C,C307*%
X169399420Y-57720000D02*
X169680580Y-57720000D01*
X169399420Y-56700000D02*
X169680580Y-56700000D01*
%TO.C,R1702*%
X149285680Y-66277573D02*
X148811164Y-66277573D01*
X149285680Y-65232573D02*
X148811164Y-65232573D01*
%TO.C,R901*%
X182450922Y-112675095D02*
X182450922Y-112200579D01*
X181405922Y-112675095D02*
X181405922Y-112200579D01*
%TO.C,C310*%
X177457779Y-59500000D02*
X177132221Y-59500000D01*
X177457779Y-58480000D02*
X177132221Y-58480000D01*
%TO.C,C413*%
X176522451Y-72920931D02*
X176196893Y-72920931D01*
X176522451Y-71900931D02*
X176196893Y-71900931D01*
%TO.C,R401*%
X188084172Y-76203152D02*
X188084172Y-76528710D01*
X187064172Y-76203152D02*
X187064172Y-76528710D01*
%TO.C,U302*%
D13*
X157995178Y-53775000D02*
G75*
G02*
X157854822Y-53775000I-70178J0D01*
G01*
X157854822Y-53775000D02*
G75*
G02*
X157995178Y-53775000I70178J0D01*
G01*
D12*
X159115000Y-53275000D02*
X159115000Y-52275000D01*
X157635000Y-53275000D02*
X157635000Y-52275000D01*
%TO.C,U404*%
X187876476Y-93562431D02*
X185426476Y-93562431D01*
X185426476Y-90342431D02*
X187226476Y-90342431D01*
%TO.C,R206*%
X159877281Y-110049078D02*
X160184563Y-110049078D01*
X159877281Y-109289078D02*
X160184563Y-109289078D01*
%TO.C,SW201*%
X143062600Y-116584200D02*
X147462600Y-116584200D01*
X147462600Y-116584200D02*
X147462600Y-116464200D01*
X143062600Y-116464200D02*
X143062600Y-116584200D01*
X147462600Y-115454200D02*
X147462600Y-114314200D01*
X143062600Y-114314200D02*
X143062600Y-115454200D01*
X147462600Y-113304200D02*
X147462600Y-113184200D01*
X143062600Y-113184200D02*
X143062600Y-113304200D01*
X147462600Y-113184200D02*
X143062600Y-113184200D01*
%TO.C,Q701*%
X183465922Y-117795693D02*
X183225922Y-117465693D01*
X183705922Y-117465693D01*
X183465922Y-117795693D01*
G36*
X183465922Y-117795693D02*
G01*
X183225922Y-117465693D01*
X183705922Y-117465693D01*
X183465922Y-117795693D01*
G37*
X184628422Y-120865693D02*
X185278422Y-120865693D01*
X184628422Y-120865693D02*
X183978422Y-120865693D01*
X184628422Y-117745693D02*
X185278422Y-117745693D01*
X184628422Y-117745693D02*
X183978422Y-117745693D01*
%TO.C,C502*%
X173229672Y-132972239D02*
X173229672Y-132497723D01*
X172184672Y-132972239D02*
X172184672Y-132497723D01*
%TO.C,R702*%
X189320922Y-119712917D02*
X189320922Y-119203469D01*
X188275922Y-119712917D02*
X188275922Y-119203469D01*
%TO.C,D1502*%
X147550922Y-84322076D02*
X147550922Y-87622076D01*
X147550922Y-84322076D02*
X153060922Y-84322076D01*
X147550922Y-87622076D02*
X153060922Y-87622076D01*
%TO.C,C412*%
X183250172Y-74039652D02*
X183250172Y-74365210D01*
X182230172Y-74039652D02*
X182230172Y-74365210D01*
%TO.C,D402*%
X175761476Y-70274931D02*
X175761476Y-67989931D01*
X174291476Y-70274931D02*
X175761476Y-70274931D01*
X174291476Y-67989931D02*
X174291476Y-70274931D01*
%TO.C,FB403*%
X177650172Y-70277710D02*
X177650172Y-69952152D01*
X176630172Y-70277710D02*
X176630172Y-69952152D01*
%TO.C,R503*%
X167324672Y-132532742D02*
X167324672Y-133007258D01*
X166279672Y-132532742D02*
X166279672Y-133007258D01*
%TO.C,R1402*%
X149285680Y-48656074D02*
X148811164Y-48656074D01*
X149285680Y-47611074D02*
X148811164Y-47611074D01*
%TO.C,C306*%
X158475580Y-55030000D02*
X158194420Y-55030000D01*
X158475580Y-54010000D02*
X158194420Y-54010000D01*
%TO.C,C314*%
X176250000Y-53580580D02*
X176250000Y-53299420D01*
X175230000Y-53580580D02*
X175230000Y-53299420D01*
%TD*%
%LPC*%
D14*
%TO.C,U201*%
X175513400Y-102074981D03*
X175513400Y-102874981D03*
X175513400Y-103674981D03*
X175513400Y-104474981D03*
X175513400Y-105274981D03*
X175513400Y-106074981D03*
X175513400Y-106874981D03*
X175513400Y-107674981D03*
X175513400Y-108474981D03*
X175513400Y-109274981D03*
X175513400Y-110074981D03*
X175513400Y-110874981D03*
X175513400Y-111674981D03*
X175513400Y-112474981D03*
X175513400Y-113274981D03*
X175513400Y-114074981D03*
X174713400Y-102074981D03*
X174713400Y-102874981D03*
X174713400Y-103674981D03*
X174713400Y-104474981D03*
X174713400Y-105274981D03*
X174713400Y-106074981D03*
X174713400Y-106874981D03*
X174713400Y-107674981D03*
X174713400Y-108474981D03*
X174713400Y-109274981D03*
X174713400Y-110074981D03*
X174713400Y-110874981D03*
X174713400Y-111674981D03*
X174713400Y-112474981D03*
X174713400Y-113274981D03*
X174713400Y-114074981D03*
X173913400Y-102074981D03*
X173913400Y-102874981D03*
X173913400Y-103674981D03*
X173913400Y-104474981D03*
X173913400Y-105274981D03*
X173913400Y-106074981D03*
X173913400Y-106874981D03*
X173913400Y-107674981D03*
X173913400Y-108474981D03*
X173913400Y-109274981D03*
X173913400Y-110074981D03*
X173913400Y-110874981D03*
X173913400Y-111674981D03*
X173913400Y-112474981D03*
X173913400Y-113274981D03*
X173913400Y-114074981D03*
X173113400Y-102074981D03*
X173113400Y-102874981D03*
X173113400Y-103674981D03*
X173113400Y-104474981D03*
X173113400Y-105274981D03*
X173113400Y-106074981D03*
X173113400Y-106874981D03*
X173113400Y-107674981D03*
X173113400Y-108474981D03*
X173113400Y-109274981D03*
X173113400Y-110074981D03*
X173113400Y-110874981D03*
X173113400Y-111674981D03*
X173113400Y-112474981D03*
X173113400Y-113274981D03*
X173113400Y-114074981D03*
X172313400Y-102074981D03*
X172313400Y-102874981D03*
X172313400Y-103674981D03*
X172313400Y-104474981D03*
X172313400Y-105274981D03*
X172313400Y-106074981D03*
X172313400Y-106874981D03*
X172313400Y-107674981D03*
X172313400Y-108474981D03*
X172313400Y-109274981D03*
X172313400Y-110074981D03*
X172313400Y-110874981D03*
X172313400Y-111674981D03*
X172313400Y-112474981D03*
X172313400Y-113274981D03*
X172313400Y-114074981D03*
X171513400Y-102074981D03*
X171513400Y-102874981D03*
X171513400Y-103674981D03*
X171513400Y-104474981D03*
X171513400Y-105274981D03*
X171513400Y-106074981D03*
X171513400Y-106874981D03*
X171513400Y-107674981D03*
X171513400Y-108474981D03*
X171513400Y-109274981D03*
X171513400Y-110074981D03*
X171513400Y-110874981D03*
X171513400Y-111674981D03*
X171513400Y-112474981D03*
X171513400Y-113274981D03*
X171513400Y-114074981D03*
X170713400Y-102074981D03*
X170713400Y-102874981D03*
X170713400Y-103674981D03*
X170713400Y-104474981D03*
X170713400Y-105274981D03*
X170713400Y-106074981D03*
X170713400Y-106874981D03*
X170713400Y-107674981D03*
X170713400Y-108474981D03*
X170713400Y-109274981D03*
X170713400Y-110074981D03*
X170713400Y-110874981D03*
X170713400Y-111674981D03*
X170713400Y-112474981D03*
X170713400Y-113274981D03*
X170713400Y-114074981D03*
X169913400Y-102074981D03*
X169913400Y-102874981D03*
X169913400Y-103674981D03*
X169913400Y-104474981D03*
X169913400Y-105274981D03*
X169913400Y-106074981D03*
X169913400Y-106874981D03*
X169913400Y-107674981D03*
X169913400Y-108474981D03*
X169913400Y-109274981D03*
X169913400Y-110074981D03*
X169913400Y-110874981D03*
X169913400Y-111674981D03*
X169913400Y-112474981D03*
X169913400Y-113274981D03*
X169913400Y-114074981D03*
X169113400Y-102074981D03*
X169113400Y-102874981D03*
X169113400Y-103674981D03*
X169113400Y-104474981D03*
X169113400Y-105274981D03*
X169113400Y-106074981D03*
X169113400Y-106874981D03*
X169113400Y-107674981D03*
X169113400Y-108474981D03*
X169113400Y-109274981D03*
X169113400Y-110074981D03*
X169113400Y-110874981D03*
X169113400Y-111674981D03*
X169113400Y-112474981D03*
X169113400Y-113274981D03*
X169113400Y-114074981D03*
X168313400Y-102074981D03*
X168313400Y-102874981D03*
X168313400Y-103674981D03*
X168313400Y-104474981D03*
X168313400Y-105274981D03*
X168313400Y-106074981D03*
X168313400Y-106874981D03*
X168313400Y-107674981D03*
X168313400Y-108474981D03*
X168313400Y-109274981D03*
X168313400Y-110074981D03*
X168313400Y-110874981D03*
X168313400Y-111674981D03*
X168313400Y-112474981D03*
X168313400Y-113274981D03*
X168313400Y-114074981D03*
X167513400Y-102074981D03*
X167513400Y-102874981D03*
X167513400Y-103674981D03*
X167513400Y-104474981D03*
X167513400Y-105274981D03*
X167513400Y-106074981D03*
X167513400Y-106874981D03*
X167513400Y-107674981D03*
X167513400Y-108474981D03*
X167513400Y-109274981D03*
X167513400Y-110074981D03*
X167513400Y-110874981D03*
X167513400Y-111674981D03*
X167513400Y-112474981D03*
X167513400Y-113274981D03*
X167513400Y-114074981D03*
X166713400Y-102074981D03*
X166713400Y-102874981D03*
X166713400Y-103674981D03*
X166713400Y-104474981D03*
X166713400Y-105274981D03*
X166713400Y-106074981D03*
X166713400Y-106874981D03*
X166713400Y-107674981D03*
X166713400Y-108474981D03*
X166713400Y-109274981D03*
X166713400Y-110074981D03*
X166713400Y-110874981D03*
X166713400Y-111674981D03*
X166713400Y-112474981D03*
X166713400Y-113274981D03*
X166713400Y-114074981D03*
X165913400Y-102074981D03*
X165913400Y-102874981D03*
X165913400Y-103674981D03*
X165913400Y-104474981D03*
X165913400Y-105274981D03*
X165913400Y-106074981D03*
X165913400Y-106874981D03*
X165913400Y-107674981D03*
X165913400Y-108474981D03*
X165913400Y-109274981D03*
X165913400Y-110074981D03*
X165913400Y-110874981D03*
X165913400Y-111674981D03*
X165913400Y-112474981D03*
X165913400Y-113274981D03*
X165913400Y-114074981D03*
X165113400Y-102074981D03*
X165113400Y-102874981D03*
X165113400Y-103674981D03*
X165113400Y-104474981D03*
X165113400Y-105274981D03*
X165113400Y-106074981D03*
X165113400Y-106874981D03*
X165113400Y-107674981D03*
X165113400Y-108474981D03*
X165113400Y-109274981D03*
X165113400Y-110074981D03*
X165113400Y-110874981D03*
X165113400Y-111674981D03*
X165113400Y-112474981D03*
X165113400Y-113274981D03*
X165113400Y-114074981D03*
X164313400Y-102074981D03*
X164313400Y-102874981D03*
X164313400Y-103674981D03*
X164313400Y-104474981D03*
X164313400Y-105274981D03*
X164313400Y-106074981D03*
X164313400Y-106874981D03*
X164313400Y-107674981D03*
X164313400Y-108474981D03*
X164313400Y-109274981D03*
X164313400Y-110074981D03*
X164313400Y-110874981D03*
X164313400Y-111674981D03*
X164313400Y-112474981D03*
X164313400Y-113274981D03*
X164313400Y-114074981D03*
X163513400Y-102074981D03*
X163513400Y-102874981D03*
X163513400Y-103674981D03*
X163513400Y-104474981D03*
X163513400Y-105274981D03*
X163513400Y-106074981D03*
X163513400Y-106874981D03*
X163513400Y-107674981D03*
X163513400Y-108474981D03*
X163513400Y-109274981D03*
X163513400Y-110074981D03*
X163513400Y-110874981D03*
X163513400Y-111674981D03*
X163513400Y-112474981D03*
X163513400Y-113274981D03*
X163513400Y-114074981D03*
%TD*%
D15*
%TO.C,J401*%
X184480200Y-46126400D03*
X183830200Y-46126400D03*
X183180200Y-46126400D03*
X182530200Y-46126400D03*
X181880200Y-46126400D03*
D16*
X186555200Y-43466400D03*
D17*
X185667700Y-46041400D03*
D18*
X184330200Y-43466400D03*
D19*
X181630200Y-43466400D03*
D17*
X180692700Y-46041400D03*
D16*
X179805200Y-43466400D03*
%TD*%
D20*
%TO.C,R2037*%
X178689000Y-69279000D03*
X178689000Y-70929000D03*
%TD*%
%TO.C,R2036*%
X180213000Y-69253600D03*
X180213000Y-70903600D03*
%TD*%
D21*
%TO.C,FB405*%
X185597800Y-50622200D03*
X187172800Y-50622200D03*
%TD*%
D22*
%TO.C,C2011*%
X196062600Y-114300000D03*
X196062600Y-112750000D03*
%TD*%
D23*
%TO.C,C2010*%
X210312000Y-111937800D03*
X210312000Y-113487800D03*
%TD*%
D24*
%TO.C,R211*%
X160858200Y-103149400D03*
X160858200Y-102129400D03*
%TD*%
D25*
%TO.C,C234*%
X163347400Y-116687600D03*
X162387400Y-116687600D03*
%TD*%
%TO.C,C233*%
X180314600Y-102285800D03*
X179354600Y-102285800D03*
%TD*%
D26*
%TO.C,C232*%
X178384200Y-116022000D03*
X178384200Y-115062000D03*
%TD*%
D27*
%TO.C,C231*%
X173106200Y-96545400D03*
X174066200Y-96545400D03*
%TD*%
%TO.C,C230*%
X160596400Y-99731600D03*
X159636400Y-99731600D03*
%TD*%
%TO.C,C229*%
X160599000Y-100736400D03*
X159639000Y-100736400D03*
%TD*%
D25*
%TO.C,C228*%
X175968600Y-99517200D03*
X175008600Y-99517200D03*
%TD*%
%TO.C,C227*%
X175968600Y-98526600D03*
X175008600Y-98526600D03*
%TD*%
D27*
%TO.C,C226*%
X173106200Y-99517200D03*
X174066200Y-99517200D03*
%TD*%
D25*
%TO.C,C225*%
X175968600Y-97536000D03*
X175008600Y-97536000D03*
%TD*%
D27*
%TO.C,C224*%
X173080800Y-97536000D03*
X174040800Y-97536000D03*
%TD*%
%TO.C,C223*%
X173080800Y-98526600D03*
X174040800Y-98526600D03*
%TD*%
D21*
%TO.C,FB404*%
X158749900Y-127736600D03*
X160324900Y-127736600D03*
%TD*%
D28*
%TO.C,R2030*%
X162598600Y-137363200D03*
X164248600Y-137363200D03*
%TD*%
%TO.C,R2029*%
X161100000Y-134213600D03*
X162750000Y-134213600D03*
%TD*%
D29*
%TO.C,D1404*%
X158375600Y-131572000D03*
X162375600Y-131572000D03*
%TD*%
D30*
%TO.C,C2009*%
X161048400Y-135763000D03*
X162598400Y-135763000D03*
%TD*%
D27*
%TO.C,C222*%
X159311400Y-129057400D03*
X160271400Y-129057400D03*
%TD*%
D31*
%TO.C,U502*%
X162407600Y-125487000D03*
X163357600Y-125487000D03*
X164307600Y-125487000D03*
X164307600Y-127762000D03*
X163357600Y-127762000D03*
X162407600Y-127762000D03*
%TD*%
D32*
%TO.C,Q2002*%
X206777000Y-115874600D03*
X208677000Y-115874600D03*
X207727000Y-113999600D03*
%TD*%
D28*
%TO.C,R2020*%
X212044500Y-115022100D03*
X210394500Y-115022100D03*
%TD*%
%TO.C,R2014*%
X212054500Y-116512100D03*
X210404500Y-116512100D03*
%TD*%
%TO.C,R2018*%
X212064500Y-119512100D03*
X210414500Y-119512100D03*
%TD*%
%TO.C,R2016*%
X212064500Y-118012100D03*
X210414500Y-118012100D03*
%TD*%
D23*
%TO.C,C2007*%
X203585300Y-118028300D03*
X203585300Y-119578300D03*
%TD*%
D33*
%TO.C,R2008*%
X202754500Y-94872100D03*
X202754500Y-96522100D03*
%TD*%
D34*
%TO.C,Q2003*%
X198574500Y-115400100D03*
X197624500Y-113525100D03*
X199524500Y-113525100D03*
%TD*%
D32*
%TO.C,Q2006*%
X198577700Y-117365100D03*
X199527700Y-119240100D03*
X197627700Y-119240100D03*
%TD*%
D35*
%TO.C,D2001*%
X198145400Y-92926200D03*
X198145400Y-94501200D03*
%TD*%
D28*
%TO.C,R2013*%
X193006600Y-120350633D03*
X194656600Y-120350633D03*
%TD*%
%TO.C,R2027*%
X205020900Y-121692100D03*
X206670900Y-121692100D03*
%TD*%
%TO.C,R2023*%
X209584800Y-121606900D03*
X211234800Y-121606900D03*
%TD*%
%TO.C,R2019*%
X194656700Y-115818500D03*
X193006700Y-115818500D03*
%TD*%
D36*
%TO.C,C2004*%
X200474100Y-97124100D03*
X198924100Y-97124100D03*
%TD*%
D37*
%TO.C,Q2008*%
X195266100Y-123971900D03*
D38*
X197546100Y-130271900D03*
D37*
X199826100Y-123971900D03*
%TD*%
D39*
%TO.C,J2005*%
X201929200Y-137609600D03*
X206179200Y-137609600D03*
X197679200Y-137609600D03*
%TD*%
D33*
%TO.C,R2025*%
X208588300Y-118524100D03*
X208588300Y-120174100D03*
%TD*%
D40*
%TO.C,C2006*%
X192735200Y-130048000D03*
X192735200Y-127098000D03*
%TD*%
D20*
%TO.C,R2034*%
X204642000Y-114928100D03*
X204642000Y-113278100D03*
%TD*%
D41*
%TO.C,C2005*%
X212665900Y-126452100D03*
X212665900Y-129402100D03*
%TD*%
D20*
%TO.C,R2035*%
X201781100Y-115016500D03*
X201781100Y-113366500D03*
%TD*%
D42*
%TO.C,J1801*%
X206654400Y-82550000D03*
X204114400Y-82550000D03*
D43*
X201574400Y-82550000D03*
%TD*%
D35*
%TO.C,D2002*%
X195961000Y-92996700D03*
X195961000Y-94571700D03*
%TD*%
D33*
%TO.C,R2026*%
X196092300Y-120137500D03*
X196092300Y-121787500D03*
%TD*%
D44*
%TO.C,U2001*%
X205259500Y-104217100D03*
X203989500Y-104217100D03*
X202719500Y-104217100D03*
X201449500Y-104217100D03*
X201449500Y-99267100D03*
X202719500Y-99267100D03*
X203989500Y-99267100D03*
X205259500Y-99267100D03*
%TD*%
D34*
%TO.C,Q2001*%
X204554500Y-111647100D03*
X203604500Y-109772100D03*
X205504500Y-109772100D03*
%TD*%
%TO.C,Q2005*%
X206074500Y-119857100D03*
X205124500Y-117982100D03*
X207024500Y-117982100D03*
%TD*%
D33*
%TO.C,R2007*%
X204304500Y-94877100D03*
X204304500Y-96527100D03*
%TD*%
%TO.C,R2006*%
X201354500Y-90027100D03*
X201354500Y-91677100D03*
%TD*%
D23*
%TO.C,C2002*%
X207217500Y-102229500D03*
X207217500Y-100679500D03*
%TD*%
D32*
%TO.C,Q2004*%
X200955100Y-109664300D03*
X201905100Y-111539300D03*
X200005100Y-111539300D03*
%TD*%
D33*
%TO.C,R2004*%
X204334500Y-90027100D03*
X204334500Y-91677100D03*
%TD*%
%TO.C,R2003*%
X202844500Y-90027100D03*
X202844500Y-91677100D03*
%TD*%
%TO.C,R2022*%
X195961000Y-89815400D03*
X195961000Y-91465400D03*
%TD*%
D22*
%TO.C,C2003*%
X198164500Y-100762100D03*
X198164500Y-102312100D03*
%TD*%
D33*
%TO.C,R2005*%
X205824500Y-90027100D03*
X205824500Y-91677100D03*
%TD*%
D37*
%TO.C,Q2007*%
X205558400Y-123842100D03*
D38*
X207838400Y-130142100D03*
D37*
X210118400Y-123842100D03*
%TD*%
D33*
%TO.C,R2024*%
X196066900Y-115730100D03*
X196066900Y-117380100D03*
%TD*%
D20*
%TO.C,R2009*%
X199724500Y-102342100D03*
X199724500Y-100692100D03*
%TD*%
D28*
%TO.C,R2015*%
X193006600Y-118837300D03*
X194656600Y-118837300D03*
%TD*%
D30*
%TO.C,C2001*%
X202824500Y-93237100D03*
X204374500Y-93237100D03*
%TD*%
D33*
%TO.C,R2010*%
X202644700Y-106330700D03*
X202644700Y-107980700D03*
%TD*%
%TO.C,R2021*%
X198196200Y-89764600D03*
X198196200Y-91414600D03*
%TD*%
D28*
%TO.C,R2017*%
X193006700Y-117331834D03*
X194656700Y-117331834D03*
%TD*%
D45*
%TO.C,R2032*%
X205742500Y-107880100D03*
X204092500Y-107880100D03*
%TD*%
D22*
%TO.C,C2008*%
X201045300Y-117989900D03*
X201045300Y-119539900D03*
%TD*%
D28*
%TO.C,R2028*%
X197887600Y-121860900D03*
X199537600Y-121860900D03*
%TD*%
%TO.C,R2031*%
X199571300Y-107854700D03*
X201221300Y-107854700D03*
%TD*%
D42*
%TO.C,J1802*%
X205729000Y-43459400D03*
D43*
X203189000Y-43459400D03*
%TD*%
D45*
%TO.C,R212*%
X145645922Y-106969078D03*
X143995922Y-106969078D03*
%TD*%
D33*
%TO.C,R1001*%
X181928422Y-108201409D03*
X181928422Y-109851409D03*
%TD*%
D46*
%TO.C,R208*%
X152740922Y-105479078D03*
X151720922Y-105479078D03*
%TD*%
D47*
%TO.C,R404*%
X186040172Y-84389931D03*
X186040172Y-82814931D03*
%TD*%
D48*
%TO.C,D1402*%
X153060922Y-50729078D03*
X149060922Y-50729078D03*
%TD*%
D21*
%TO.C,C309*%
X165705000Y-59150000D03*
X167280000Y-59150000D03*
%TD*%
D24*
%TO.C,R203*%
X160570000Y-108660000D03*
X160570000Y-107640000D03*
%TD*%
D33*
%TO.C,R1301*%
X181928422Y-97967125D03*
X181928422Y-99617125D03*
%TD*%
D22*
%TO.C,C312*%
X177340000Y-52630000D03*
X177340000Y-54180000D03*
%TD*%
D35*
%TO.C,C402*%
X189026476Y-70902431D03*
X189026476Y-72477431D03*
%TD*%
D33*
%TO.C,R801*%
X181928422Y-115024265D03*
X181928422Y-116674265D03*
%TD*%
D49*
%TO.C,R409*%
X175310800Y-91516200D03*
X176477526Y-90349474D03*
%TD*%
D35*
%TO.C,D701*%
X187318422Y-118498193D03*
X187318422Y-120073193D03*
%TD*%
D21*
%TO.C,C403*%
X184495000Y-49010000D03*
X186070000Y-49010000D03*
%TD*%
D50*
%TO.C,J1701*%
X143620922Y-60293574D03*
X143620922Y-68793574D03*
X143620922Y-64543574D03*
%TD*%
D51*
%TO.C,U501*%
X174855922Y-129552481D03*
X174205922Y-129552481D03*
X173555922Y-129552481D03*
X172905922Y-129552481D03*
X172255922Y-129552481D03*
X171605922Y-129552481D03*
X170955922Y-129552481D03*
X170305922Y-129552481D03*
X169655922Y-129552481D03*
X169005922Y-129552481D03*
X168355922Y-129552481D03*
X167705922Y-129552481D03*
X167055922Y-129552481D03*
X166405922Y-129552481D03*
X166405922Y-123827481D03*
X167055922Y-123827481D03*
X167705922Y-123827481D03*
X168355922Y-123827481D03*
X169005922Y-123827481D03*
X169655922Y-123827481D03*
X170305922Y-123827481D03*
X170955922Y-123827481D03*
X171605922Y-123827481D03*
X172255922Y-123827481D03*
X172905922Y-123827481D03*
X173555922Y-123827481D03*
X174205922Y-123827481D03*
X174855922Y-123827481D03*
%TD*%
D52*
%TO.C,R1302*%
X188798422Y-98077125D03*
X188798422Y-99902125D03*
%TD*%
D50*
%TO.C,J1501*%
X143620922Y-77915073D03*
X143620922Y-86415073D03*
X143620922Y-82165073D03*
%TD*%
D53*
%TO.C,C409*%
X177001476Y-75502431D03*
X175426476Y-75502431D03*
%TD*%
D29*
%TO.C,D1701*%
X149028422Y-61345073D03*
X153028422Y-61345073D03*
%TD*%
D27*
%TO.C,C220*%
X178720922Y-120759078D03*
X179680922Y-120759078D03*
%TD*%
D52*
%TO.C,R1002*%
X188798422Y-108311409D03*
X188798422Y-110136409D03*
%TD*%
D54*
%TO.C,R209*%
X155390000Y-100230000D03*
X156410000Y-100230000D03*
%TD*%
D30*
%TO.C,C302*%
X157665000Y-51040000D03*
X159215000Y-51040000D03*
%TD*%
D36*
%TO.C,C308*%
X181260000Y-55920000D03*
X179710000Y-55920000D03*
%TD*%
D33*
%TO.C,R701*%
X181928422Y-118435693D03*
X181928422Y-120085693D03*
%TD*%
D49*
%TO.C,R408*%
X177369037Y-89000763D03*
X178535763Y-87834037D03*
%TD*%
D33*
%TO.C,C501*%
X177190000Y-131915000D03*
X177190000Y-133565000D03*
%TD*%
%TO.C,R1101*%
X181928422Y-104789981D03*
X181928422Y-106439981D03*
%TD*%
D52*
%TO.C,R1202*%
X188798422Y-101488553D03*
X188798422Y-103313553D03*
%TD*%
D35*
%TO.C,C415*%
X183664476Y-91302931D03*
X183664476Y-92877931D03*
%TD*%
D30*
%TO.C,R307*%
X165712500Y-57520000D03*
X167262500Y-57520000D03*
%TD*%
D55*
%TO.C,U403*%
X179073372Y-81437531D03*
D56*
X182973372Y-78687531D03*
X182973372Y-79187531D03*
X182973372Y-79687531D03*
X182973372Y-80187531D03*
X182973372Y-80687531D03*
X182973372Y-81187531D03*
X182973372Y-81687531D03*
X182973372Y-82187531D03*
X182973372Y-82687531D03*
X182973372Y-83187531D03*
X182973372Y-83687531D03*
X182973372Y-84187531D03*
D57*
X181823372Y-85337531D03*
X181323372Y-85337531D03*
X180823372Y-85337531D03*
X180323372Y-85337531D03*
X179823372Y-85337531D03*
X179323372Y-85337531D03*
X178823372Y-85337531D03*
X178323372Y-85337531D03*
X177823372Y-85337531D03*
X177323372Y-85337531D03*
X176823372Y-85337531D03*
X176323372Y-85337531D03*
D56*
X175173372Y-84187531D03*
X175173372Y-83687531D03*
X175173372Y-83187531D03*
X175173372Y-82687531D03*
X175173372Y-82187531D03*
X175173372Y-81687531D03*
X175173372Y-81187531D03*
X175173372Y-80687531D03*
X175173372Y-80187531D03*
X175173372Y-79687531D03*
X175173372Y-79187531D03*
X175173372Y-78687531D03*
D57*
X176323372Y-77537531D03*
X176823372Y-77537531D03*
X177323372Y-77537531D03*
X177823372Y-77537531D03*
X178323372Y-77537531D03*
X178823372Y-77537531D03*
X179323372Y-77537531D03*
X179823372Y-77537531D03*
X180323372Y-77537531D03*
X180823372Y-77537531D03*
X181323372Y-77537531D03*
X181823372Y-77537531D03*
%TD*%
D53*
%TO.C,FB401*%
X184130000Y-50540000D03*
X182555000Y-50540000D03*
%TD*%
D58*
%TO.C,L302*%
X166517500Y-52800000D03*
X168642500Y-52800000D03*
%TD*%
D33*
%TO.C,R410*%
X172396476Y-63954931D03*
X172396476Y-65604931D03*
%TD*%
D35*
%TO.C,FB402*%
X184252172Y-73414931D03*
X184252172Y-74989931D03*
%TD*%
D59*
%TO.C,Q1101*%
X185565922Y-105659981D03*
X183690922Y-106609981D03*
X183690922Y-104709981D03*
%TD*%
D29*
%TO.C,D1501*%
X149028422Y-78966572D03*
X153028422Y-78966572D03*
%TD*%
D35*
%TO.C,D801*%
X187318422Y-115086765D03*
X187318422Y-116661765D03*
%TD*%
D36*
%TO.C,R305*%
X180535000Y-49280000D03*
X178985000Y-49280000D03*
%TD*%
D52*
%TO.C,R1102*%
X188798422Y-104899981D03*
X188798422Y-106724981D03*
%TD*%
D35*
%TO.C,D1201*%
X187318422Y-101441053D03*
X187318422Y-103016053D03*
%TD*%
D46*
%TO.C,R204*%
X160630922Y-105119078D03*
X159610922Y-105119078D03*
%TD*%
D45*
%TO.C,R1904*%
X149878422Y-99438071D03*
X148228422Y-99438071D03*
%TD*%
D33*
%TO.C,R601*%
X181928422Y-121847121D03*
X181928422Y-123497121D03*
%TD*%
D52*
%TO.C,R802*%
X188798422Y-115134265D03*
X188798422Y-116959265D03*
%TD*%
D48*
%TO.C,D1702*%
X153060922Y-68350577D03*
X149060922Y-68350577D03*
%TD*%
D42*
%TO.C,J202*%
X156703922Y-123729981D03*
X156957922Y-121189981D03*
X156703922Y-118649981D03*
X156957922Y-116109981D03*
X156703922Y-113569981D03*
D60*
X156957922Y-111029981D03*
%TD*%
D52*
%TO.C,R902*%
X188798422Y-111722837D03*
X188798422Y-113547837D03*
%TD*%
D35*
%TO.C,D1301*%
X187318422Y-98029625D03*
X187318422Y-99604625D03*
%TD*%
D46*
%TO.C,R210*%
X152780922Y-106559078D03*
X151760922Y-106559078D03*
%TD*%
D20*
%TO.C,R505*%
X174170000Y-133565000D03*
X174170000Y-131915000D03*
%TD*%
D30*
%TO.C,R306*%
X165700000Y-60680000D03*
X167250000Y-60680000D03*
%TD*%
D35*
%TO.C,R403*%
X189040172Y-75514931D03*
X189040172Y-77089931D03*
%TD*%
D21*
%TO.C,C411*%
X175559672Y-73910931D03*
X177134672Y-73910931D03*
%TD*%
D61*
%TO.C,R201*%
X159320922Y-113919078D03*
X159320922Y-114939078D03*
%TD*%
D35*
%TO.C,D1001*%
X187318422Y-108263909D03*
X187318422Y-109838909D03*
%TD*%
D45*
%TO.C,R1903*%
X149878422Y-81816572D03*
X148228422Y-81816572D03*
%TD*%
D59*
%TO.C,Q1301*%
X185565922Y-98837125D03*
X183690922Y-99787125D03*
X183690922Y-97887125D03*
%TD*%
D27*
%TO.C,C221*%
X157400922Y-108659078D03*
X158360922Y-108659078D03*
%TD*%
D35*
%TO.C,D1101*%
X187318422Y-104852481D03*
X187318422Y-106427481D03*
%TD*%
D62*
%TO.C,U303*%
X167560000Y-54270000D03*
X168060000Y-54270000D03*
X168560000Y-54270000D03*
X168560000Y-55770000D03*
X168060000Y-55770000D03*
X167560000Y-55770000D03*
%TD*%
D35*
%TO.C,C410*%
X181252172Y-73414931D03*
X181252172Y-74989931D03*
%TD*%
D28*
%TO.C,R506*%
X166865922Y-135159981D03*
X168515922Y-135159981D03*
%TD*%
D21*
%TO.C,C408*%
X184452672Y-76702431D03*
X186027672Y-76702431D03*
%TD*%
D42*
%TO.C,J201*%
X159720922Y-97219981D03*
X157180922Y-97219981D03*
X159720922Y-94679981D03*
X157180922Y-94679981D03*
X159720922Y-92139981D03*
X157180922Y-92139981D03*
X159720922Y-89599981D03*
X157180922Y-89599981D03*
X159720922Y-87059981D03*
X157180922Y-87059981D03*
X159720922Y-84519981D03*
X157180922Y-84519981D03*
X159720922Y-81979981D03*
X157180922Y-81979981D03*
X159720922Y-79439981D03*
X157180922Y-79439981D03*
X159720922Y-76899981D03*
X157180922Y-76899981D03*
X159720922Y-74359981D03*
X157180922Y-74359981D03*
X159720922Y-71819981D03*
X157180922Y-71819981D03*
X159720922Y-69279981D03*
X157180922Y-69279981D03*
X159720922Y-66739981D03*
X157180922Y-66739981D03*
X159720922Y-64199981D03*
X157180922Y-64199981D03*
X159720922Y-61659981D03*
X157180922Y-61659981D03*
X159720922Y-59119981D03*
D63*
X157180922Y-59119981D03*
%TD*%
D64*
%TO.C,X201*%
X177410922Y-119309078D03*
X177410922Y-117409078D03*
X179510922Y-117409078D03*
X179510922Y-119309078D03*
%TD*%
D65*
%TO.C,C209*%
X148892600Y-114224200D03*
X148892600Y-115184200D03*
%TD*%
D29*
%TO.C,D1401*%
X149028422Y-43723574D03*
X153028422Y-43723574D03*
%TD*%
D30*
%TO.C,R304*%
X166020000Y-50920000D03*
X167570000Y-50920000D03*
%TD*%
D47*
%TO.C,C414*%
X189126476Y-92539931D03*
X189126476Y-90964931D03*
%TD*%
D66*
%TO.C,Q201*%
X144280922Y-109489078D03*
X146155922Y-108539078D03*
X146155922Y-110439078D03*
%TD*%
D29*
%TO.C,D1601*%
X149028422Y-96588071D03*
X153028422Y-96588071D03*
%TD*%
D59*
%TO.C,Q801*%
X185565922Y-115894265D03*
X183690922Y-116844265D03*
X183690922Y-114944265D03*
%TD*%
D28*
%TO.C,R407*%
X177525000Y-97960000D03*
X179175000Y-97960000D03*
%TD*%
D33*
%TO.C,R501*%
X175670000Y-131935000D03*
X175670000Y-133585000D03*
%TD*%
D35*
%TO.C,D601*%
X187318422Y-121909621D03*
X187318422Y-123484621D03*
%TD*%
D50*
%TO.C,J1601*%
X143620922Y-95536572D03*
X143620922Y-104036572D03*
X143620922Y-99786572D03*
%TD*%
D35*
%TO.C,D901*%
X187318422Y-111675337D03*
X187318422Y-113250337D03*
%TD*%
D54*
%TO.C,R205*%
X159520922Y-110709078D03*
X160540922Y-110709078D03*
%TD*%
D53*
%TO.C,C404*%
X187627672Y-85902431D03*
X186052672Y-85902431D03*
%TD*%
D59*
%TO.C,Q1001*%
X185565922Y-109071409D03*
X183690922Y-110021409D03*
X183690922Y-108121409D03*
%TD*%
D35*
%TO.C,D401*%
X172436476Y-68002431D03*
X172436476Y-69577431D03*
%TD*%
D33*
%TO.C,R1201*%
X181928422Y-101378553D03*
X181928422Y-103028553D03*
%TD*%
D53*
%TO.C,R402*%
X187332476Y-69109431D03*
X185757476Y-69109431D03*
%TD*%
D67*
%TO.C,TP401*%
X186126476Y-88402431D03*
%TD*%
D50*
%TO.C,J1401*%
X143620922Y-42672075D03*
X143620922Y-51172075D03*
X143620922Y-46922075D03*
%TD*%
D47*
%TO.C,C405*%
X184326476Y-88689931D03*
X184326476Y-87114931D03*
%TD*%
D59*
%TO.C,Q1201*%
X185565922Y-102248553D03*
X183690922Y-103198553D03*
X183690922Y-101298553D03*
%TD*%
D21*
%TO.C,C401*%
X187465172Y-74002431D03*
X189040172Y-74002431D03*
%TD*%
D22*
%TO.C,C311*%
X164630000Y-54465000D03*
X164630000Y-56015000D03*
%TD*%
D68*
%TO.C,U202*%
X156025922Y-104339078D03*
D69*
X157930922Y-107039078D03*
X156660922Y-107039078D03*
X155390922Y-107039078D03*
X154120922Y-107039078D03*
X154120922Y-101639078D03*
X155390922Y-101639078D03*
X156660922Y-101639078D03*
X157930922Y-101639078D03*
%TD*%
D45*
%TO.C,R1901*%
X149878422Y-46573574D03*
X148228422Y-46573574D03*
%TD*%
D33*
%TO.C,R502*%
X171200000Y-131909981D03*
X171200000Y-133559981D03*
%TD*%
D70*
%TO.C,D1602*%
X149098000Y-107460800D03*
X149098000Y-103460800D03*
%TD*%
D52*
%TO.C,R602*%
X188798422Y-121957121D03*
X188798422Y-123782121D03*
%TD*%
D33*
%TO.C,R202*%
X150242600Y-113814200D03*
X150242600Y-115464200D03*
%TD*%
D28*
%TO.C,R1602*%
X148223422Y-100998071D03*
X149873422Y-100998071D03*
%TD*%
D65*
%TO.C,C214*%
X159590922Y-107679078D03*
X159590922Y-108639078D03*
%TD*%
D71*
%TO.C,U401*%
X186190172Y-78702431D03*
X187140172Y-78702431D03*
X188090172Y-78702431D03*
X188090172Y-81502431D03*
X187140172Y-81502431D03*
X186190172Y-81502431D03*
%TD*%
D59*
%TO.C,Q901*%
X185565922Y-112482837D03*
X183690922Y-113432837D03*
X183690922Y-111532837D03*
%TD*%
D58*
%TO.C,L303*%
X177727500Y-51040000D03*
X179852500Y-51040000D03*
%TD*%
D35*
%TO.C,R406*%
X179740172Y-73414931D03*
X179740172Y-74989931D03*
%TD*%
D72*
%TO.C,U402*%
X187606476Y-72339931D03*
X185876476Y-72339931D03*
X185876476Y-71039931D03*
X187576476Y-71039931D03*
%TD*%
D35*
%TO.C,D201*%
X142460922Y-107601578D03*
X142460922Y-109176578D03*
%TD*%
D62*
%TO.C,U304*%
X178980000Y-52800000D03*
X179480000Y-52800000D03*
X179980000Y-52800000D03*
X179980000Y-54300000D03*
X179480000Y-54300000D03*
X178980000Y-54300000D03*
%TD*%
D33*
%TO.C,C503*%
X168270000Y-131970019D03*
X168270000Y-133620019D03*
%TD*%
D28*
%TO.C,R1502*%
X148223422Y-83376572D03*
X149873422Y-83376572D03*
%TD*%
D20*
%TO.C,R504*%
X165320000Y-133595000D03*
X165320000Y-131945000D03*
%TD*%
D33*
%TO.C,R411*%
X174906476Y-63954931D03*
X174906476Y-65604931D03*
%TD*%
D47*
%TO.C,C406*%
X182826476Y-88289931D03*
X182826476Y-86714931D03*
%TD*%
D30*
%TO.C,R308*%
X176595000Y-57280000D03*
X178145000Y-57280000D03*
%TD*%
D22*
%TO.C,C313*%
X166130000Y-54435000D03*
X166130000Y-55985000D03*
%TD*%
D30*
%TO.C,R309*%
X176650000Y-55720000D03*
X178200000Y-55720000D03*
%TD*%
D45*
%TO.C,R1905*%
X149878422Y-64195073D03*
X148228422Y-64195073D03*
%TD*%
D59*
%TO.C,Q601*%
X185565922Y-122717121D03*
X183690922Y-123667121D03*
X183690922Y-121767121D03*
%TD*%
D61*
%TO.C,R405*%
X188553200Y-82922541D03*
X188553200Y-83942541D03*
%TD*%
D35*
%TO.C,C407*%
X173840172Y-84314931D03*
X173840172Y-85889931D03*
%TD*%
D36*
%TO.C,C307*%
X170315000Y-57210000D03*
X168765000Y-57210000D03*
%TD*%
D28*
%TO.C,R1702*%
X148223422Y-65755073D03*
X149873422Y-65755073D03*
%TD*%
D33*
%TO.C,R901*%
X181928422Y-111612837D03*
X181928422Y-113262837D03*
%TD*%
D21*
%TO.C,C310*%
X176507500Y-58990000D03*
X178082500Y-58990000D03*
%TD*%
%TO.C,C413*%
X175572172Y-72410931D03*
X177147172Y-72410931D03*
%TD*%
D47*
%TO.C,R401*%
X187574172Y-77153431D03*
X187574172Y-75578431D03*
%TD*%
D73*
%TO.C,U302*%
X158375000Y-52775000D03*
D74*
X158700000Y-52345000D03*
D75*
X158050000Y-52345000D03*
D76*
X158700000Y-53205000D03*
D77*
X158050000Y-53205000D03*
%TD*%
D78*
%TO.C,U404*%
X185026476Y-92902431D03*
X185026476Y-91002431D03*
D79*
X187626476Y-91002431D03*
X187626476Y-91952431D03*
X187626476Y-92902431D03*
%TD*%
D46*
%TO.C,R206*%
X160540922Y-109669078D03*
X159520922Y-109669078D03*
%TD*%
D80*
%TO.C,SW201*%
X147337600Y-115959200D03*
X143187600Y-115959200D03*
X147337600Y-113809200D03*
X143187600Y-113809200D03*
%TD*%
D59*
%TO.C,Q701*%
X185565922Y-119305693D03*
X183690922Y-120255693D03*
X183690922Y-118355693D03*
%TD*%
D33*
%TO.C,C502*%
X172707172Y-131909981D03*
X172707172Y-133559981D03*
%TD*%
D52*
%TO.C,R702*%
X188798422Y-118545693D03*
X188798422Y-120370693D03*
%TD*%
D48*
%TO.C,D1502*%
X153060922Y-85972076D03*
X149060922Y-85972076D03*
%TD*%
D35*
%TO.C,C412*%
X182740172Y-73414931D03*
X182740172Y-74989931D03*
%TD*%
%TO.C,D402*%
X175026476Y-68002431D03*
X175026476Y-69577431D03*
%TD*%
%TO.C,FB403*%
X177140172Y-69327431D03*
X177140172Y-70902431D03*
%TD*%
D20*
%TO.C,R503*%
X166802172Y-133595000D03*
X166802172Y-131945000D03*
%TD*%
D28*
%TO.C,R1402*%
X148223422Y-48133574D03*
X149873422Y-48133574D03*
%TD*%
D30*
%TO.C,C306*%
X157560000Y-54520000D03*
X159110000Y-54520000D03*
%TD*%
D22*
%TO.C,C314*%
X175740000Y-52665000D03*
X175740000Y-54215000D03*
%TD*%
%LPD*%
M02*
