M48
; DRILL file {KiCad 9.0.0-9.0.0-2~ubuntu22.04.1} date 2025-03-23T14:07:51-0700
; FORMAT={-:-/ absolute / inch / decimal}
; #@! TF.CreationDate,2025-03-23T14:07:51-07:00
; #@! TF.GenerationSoftware,Kicad,Pcbnew,9.0.0-9.0.0-2~ubuntu22.04.1
; #@! TF.FileFunction,Plated,1,6,PTH
FMAT,2
INCH
; #@! TA.AperFunction,Plated,PTH,ViaDrill
T1C0.0079
; #@! TA.AperFunction,Plated,PTH,ViaDrill
T2C0.0118
; #@! TA.AperFunction,Plated,PTH,ViaDrill
T3C0.0157
; #@! TA.AperFunction,Plated,PTH,ComponentDrill
T4C0.0394
%
G90
G05
T1
X5.6373Y-4.4354
X5.6544Y-1.68
X5.6544Y-2.0146
X5.6544Y-2.3738
X5.6544Y-2.7084
X5.6544Y-3.0675
X5.6544Y-3.4022
X5.6544Y-3.7613
X5.6544Y-4.0959
X5.7341Y-4.2114
X5.7542Y-4.2732
X5.8013Y-4.4415
X5.8619Y-4.497
X5.87Y-4.2307
X5.906Y-1.8967
X5.906Y-2.5905
X5.906Y-3.2842
X5.906Y-3.978
X5.9151Y-4.4809
X5.96Y-4.548
X5.967Y-3.919
X5.968Y-3.225
X5.9733Y-4.1527
X5.9748Y-4.1952
X5.994Y-2.531
X6.0247Y-1.7214
X6.026Y-1.833
X6.0542Y-3.1067
X6.0555Y-3.808
X6.0595Y-3.3868
X6.0607Y-2.0005
X6.0614Y-2.4203
X6.0637Y-2.6921
X6.1413Y-4.2696
X6.1428Y-4.1078
X6.1579Y-3.9461
X6.1924Y-3.8842
X6.1969Y-4.2779
X6.2031Y-2.1465
X6.2073Y-1.944
X6.2073Y-2.0094
X6.2178Y-4.2141
X6.2347Y-4.2779
X6.2353Y-5.18
X6.2402Y-1.9798
X6.2402Y-2.3144
X6.2402Y-2.6735
X6.2402Y-3.0082
X6.253Y-5.032
X6.2632Y-2.1455
X6.2683Y-2.0094
X6.2721Y-5.081
X6.2725Y-4.485
X6.2804Y-4.3177
X6.2804Y-4.3586
X6.2831Y-4.2393
X6.2835Y-4.1681
X6.2849Y-3.9264
X6.285Y-3.966
X6.3225Y-4.2383
X6.3227Y-3.9264
X6.3228Y-3.966
X6.333Y-4.0244
X6.3405Y-5.345
X6.341Y-5.276
X6.3477Y-4.1586
X6.3583Y-4.2508
X6.367Y-4.1086
X6.3756Y-4.2236
X6.3932Y-4.594
X6.4008Y-4.2102
X6.4016Y-4.3925
X6.4028Y-4.1744
X6.431Y-4.594
X6.4314Y-5.03
X6.435Y-4.0181
X6.4375Y-4.1132
X6.4375Y-4.1447
X6.4375Y-4.3652
X6.4375Y-4.4911
X6.4559Y-4.2705
X6.469Y-4.1132
X6.4815Y-2.1443
X6.4815Y-2.2053
X6.4855Y-4.2236
X6.5005Y-4.1132
X6.5236Y-2.389
X6.5238Y-2.3287
X6.5241Y-2.2646
X6.532Y-4.0502
X6.532Y-4.1132
X6.532Y-4.4596
X6.5406Y-2.1431
X6.5406Y-2.2041
X6.5558Y-2.0787
X6.5564Y-5.425
X6.5725Y-5.2583
X6.5791Y-4.098
X6.595Y-4.174
X6.595Y-4.2077
X6.595Y-4.2392
X6.595Y-4.2707
X6.595Y-4.3022
X6.595Y-4.3337
X6.5958Y-5.425
X6.6079Y-4.3823
X6.611Y-4.3481
X6.6265Y-4.1762
X6.6265Y-4.2077
X6.6265Y-4.2392
X6.6265Y-4.2707
X6.6265Y-4.3022
X6.6265Y-4.3337
X6.6293Y-5.2583
X6.6352Y-5.425
X6.6414Y-4.3824
X6.6421Y-4.3469
X6.6443Y-2.2524
X6.658Y-4.1762
X6.658Y-4.2077
X6.658Y-4.2392
X6.658Y-4.2707
X6.658Y-4.3022
X6.658Y-4.3337
X6.6723Y-4.1298
X6.6732Y-4.0969
X6.6746Y-5.425
X6.6749Y-4.3792
X6.6859Y-3.9559
X6.6894Y-3.9897
X6.6895Y-4.0187
X6.6895Y-4.0502
X6.6895Y-4.1762
X6.6895Y-4.2077
X6.6895Y-4.2392
X6.6895Y-4.2707
X6.6895Y-4.3022
X6.6895Y-4.3337
X6.6895Y-4.4911
X6.7051Y-4.3803
X6.7139Y-5.425
X6.721Y-4.0817
X6.721Y-4.1762
X6.721Y-4.2077
X6.721Y-4.2392
X6.721Y-4.2707
X6.721Y-4.3022
X6.721Y-4.3337
X6.7525Y-4.1762
X6.7525Y-4.2077
X6.7525Y-4.2392
X6.7525Y-4.2707
X6.7525Y-4.3022
X6.7525Y-4.3337
X6.7533Y-5.425
X6.7668Y-4.3806
X6.7677Y-4.1295
X6.7927Y-5.425
X6.7987Y-4.3469
X6.7987Y-4.3805
X6.7999Y-4.1604
X6.8142Y-3.84
X6.8142Y-3.879
X6.8152Y-3.801
X6.8152Y-3.918
X6.8155Y-4.0502
X6.8155Y-4.4596
X6.832Y-5.425
X6.852Y-3.84
X6.852Y-3.879
X6.853Y-3.801
X6.853Y-3.918
X6.8714Y-5.425
X6.8901Y-3.84
X6.8901Y-3.879
X6.8901Y-3.918
X6.91Y-4.0187
X6.91Y-4.4911
X6.9108Y-5.425
X6.9189Y-2.0734
X6.9189Y-2.1344
X6.9279Y-3.84
X6.9279Y-3.879
X6.9279Y-3.918
X6.9491Y-2.3224
X6.9501Y-5.425
X6.9526Y-2.2551
X6.9547Y-2.1937
X6.9819Y-2.072
X6.9819Y-2.1331
X6.9851Y-4.7448
X6.9895Y-5.425
X6.9941Y-1.8705
X6.9971Y-2.0094
X7.023Y-4.53
X7.023Y-4.5678
X7.0289Y-5.425
X7.0577Y-1.698
X7.0581Y-1.7271
X7.061Y-4.029
X7.0674Y-4.5759
X7.0683Y-5.425
X7.0741Y-4.7889
X7.0752Y-2.2016
X7.0789Y-1.7113
X7.0963Y-1.8313
X7.099Y-4.027
X7.0992Y-1.6962
X7.0996Y-1.7245
X7.1012Y-1.794
X7.1076Y-5.425
X7.1139Y-1.8127
X7.1297Y-1.7944
X7.1297Y-1.829
X7.1323Y-2.2634
X7.147Y-5.425
X7.1508Y-1.7113
X7.16Y-1.883
X7.1864Y-5.425
X7.2257Y-5.425
X7.2314Y-3.9288
X7.2314Y-4.0631
X7.2314Y-4.1975
X7.2314Y-4.3318
X7.2314Y-4.4661
X7.2314Y-4.6004
X7.2314Y-4.7347
X7.2314Y-4.869
X7.2362Y-2.8185
X7.2571Y-1.7113
X7.2651Y-5.425
X7.3045Y-5.425
X7.3098Y-1.8127
X7.3253Y-1.7002
X7.3293Y-1.7267
X7.3439Y-5.425
X7.3447Y-1.7113
X7.3651Y-1.698
X7.3651Y-1.7262
X7.3832Y-5.425
X7.4059Y-3.735
X7.4226Y-5.425
X7.433Y-3.9332
X7.4456Y-3.4682
X7.462Y-5.425
X7.4686Y-4.7396
X7.4689Y-4.874
X7.4698Y-4.0715
X7.4706Y-4.2058
X7.4706Y-4.34
X7.4753Y-4.605
X7.4757Y-4.4735
X7.5013Y-5.425
X7.5416Y-5.425
X7.581Y-5.425
X7.588Y-5.0039
X7.588Y-5.12
X7.5987Y-4.6786
X7.5987Y-4.7382
X7.5987Y-4.5598
X7.5987Y-4.6194
X7.6694Y-5.011
X7.6694Y-5.0307
X7.6694Y-5.0504
X7.6694Y-5.0701
X7.6694Y-5.0898
X7.6694Y-5.1095
X7.6694Y-5.1292
X7.6694Y-5.1488
X7.6694Y-5.1685
X7.6694Y-5.1882
X7.6694Y-5.2079
X7.6694Y-5.2276
X7.6694Y-5.2473
X7.6891Y-5.011
X7.6891Y-5.0307
X7.6891Y-5.0504
X7.6891Y-5.0701
X7.6891Y-5.0898
X7.6891Y-5.1095
X7.6891Y-5.1292
X7.6891Y-5.1488
X7.6891Y-5.1685
X7.6891Y-5.1882
X7.6891Y-5.2079
X7.6891Y-5.2276
X7.6891Y-5.2473
X7.7087Y-5.011
X7.7087Y-5.0307
X7.7087Y-5.0504
X7.7087Y-5.0701
X7.7087Y-5.0898
X7.7087Y-5.1095
X7.7087Y-5.1292
X7.7087Y-5.1488
X7.7087Y-5.1685
X7.7087Y-5.1882
X7.7087Y-5.2079
X7.7087Y-5.2276
X7.7087Y-5.2473
X7.715Y-3.536
X7.715Y-3.7233
X7.719Y-4.437
X7.719Y-4.502
X7.7284Y-5.011
X7.7284Y-5.0307
X7.7284Y-5.0504
X7.7284Y-5.0701
X7.7284Y-5.0898
X7.7284Y-5.1095
X7.7284Y-5.1292
X7.7284Y-5.1488
X7.7284Y-5.1685
X7.7284Y-5.1882
X7.7284Y-5.2079
X7.7284Y-5.2276
X7.7284Y-5.2473
X7.7481Y-5.011
X7.7481Y-5.0307
X7.7481Y-5.0504
X7.7481Y-5.0701
X7.7481Y-5.0898
X7.7481Y-5.1095
X7.7481Y-5.1292
X7.7481Y-5.1488
X7.7481Y-5.1685
X7.7481Y-5.1882
X7.7481Y-5.2079
X7.7481Y-5.2276
X7.7481Y-5.2473
X7.7678Y-5.011
X7.7678Y-5.0307
X7.7678Y-5.0504
X7.7678Y-5.0701
X7.7678Y-5.0898
X7.7678Y-5.1095
X7.7678Y-5.1292
X7.7678Y-5.1488
X7.7678Y-5.1685
X7.7678Y-5.1882
X7.7678Y-5.2079
X7.7678Y-5.2276
X7.7678Y-5.2473
X7.7826Y-5.4177
X7.7834Y-5.3622
X7.7875Y-5.011
X7.7875Y-5.0307
X7.7875Y-5.0504
X7.7875Y-5.0701
X7.7875Y-5.0898
X7.7875Y-5.1095
X7.7875Y-5.1292
X7.7875Y-5.1488
X7.7875Y-5.1685
X7.7875Y-5.1882
X7.7875Y-5.2079
X7.7875Y-5.2276
X7.7875Y-5.2473
X7.801Y-3.7205
X7.803Y-3.534
X7.8072Y-5.011
X7.8072Y-5.0307
X7.8072Y-5.0504
X7.8072Y-5.0701
X7.8072Y-5.0898
X7.8072Y-5.1095
X7.8072Y-5.1292
X7.8072Y-5.1488
X7.8072Y-5.1685
X7.8072Y-5.1882
X7.8072Y-5.2079
X7.8072Y-5.2276
X7.8072Y-5.2473
X7.8179Y-4.5433
X7.8269Y-5.011
X7.8269Y-5.0307
X7.8269Y-5.0504
X7.8269Y-5.0701
X7.8269Y-5.0898
X7.8269Y-5.1095
X7.8269Y-5.1292
X7.8269Y-5.1488
X7.8269Y-5.1685
X7.8269Y-5.1882
X7.8269Y-5.2079
X7.8269Y-5.2276
X7.8269Y-5.2473
X7.8317Y-3.8238
X7.8465Y-5.011
X7.8465Y-5.0307
X7.8465Y-5.0504
X7.8465Y-5.0701
X7.8465Y-5.0898
X7.8465Y-5.1095
X7.8465Y-5.1292
X7.8465Y-5.1488
X7.8465Y-5.1685
X7.8465Y-5.1882
X7.8465Y-5.2079
X7.8465Y-5.2276
X7.8465Y-5.2473
X7.8662Y-5.011
X7.8662Y-5.0307
X7.8662Y-5.0504
X7.8662Y-5.0701
X7.8662Y-5.0898
X7.8662Y-5.1095
X7.8662Y-5.1292
X7.8662Y-5.1488
X7.8662Y-5.1685
X7.8662Y-5.1882
X7.8662Y-5.2079
X7.8662Y-5.2276
X7.8662Y-5.2473
X7.8859Y-5.011
X7.8859Y-5.0307
X7.8859Y-5.0504
X7.8859Y-5.0701
X7.8859Y-5.0898
X7.8859Y-5.1095
X7.8859Y-5.1292
X7.8859Y-5.1488
X7.8859Y-5.1685
X7.8859Y-5.1882
X7.8859Y-5.2079
X7.8859Y-5.2276
X7.8859Y-5.2473
X7.8927Y-3.8238
X7.93Y-3.9077
X7.9302Y-3.8829
X7.9302Y-3.9351
X8.0308Y-4.1306
X8.031Y-4.1047
X8.0311Y-4.0728
X8.0747Y-5.0063
X8.0747Y-5.026
X8.0747Y-5.0457
X8.0747Y-5.0654
X8.0747Y-5.085
X8.0747Y-5.1047
X8.0747Y-5.1244
X8.0747Y-5.1441
X8.0747Y-5.1638
X8.0747Y-5.1835
X8.0747Y-5.2032
X8.0747Y-5.2228
X8.0747Y-5.2425
X8.0944Y-5.0063
X8.0944Y-5.026
X8.0944Y-5.0457
X8.0944Y-5.0654
X8.0944Y-5.085
X8.0944Y-5.1047
X8.0944Y-5.1244
X8.0944Y-5.1441
X8.0944Y-5.1638
X8.0944Y-5.1835
X8.0944Y-5.2032
X8.0944Y-5.2228
X8.0944Y-5.2425
X8.1141Y-5.0063
X8.1141Y-5.026
X8.1141Y-5.0457
X8.1141Y-5.0654
X8.1141Y-5.085
X8.1141Y-5.1047
X8.1141Y-5.1244
X8.1141Y-5.1441
X8.1141Y-5.1638
X8.1141Y-5.1835
X8.1141Y-5.2032
X8.1141Y-5.2228
X8.1141Y-5.2425
X8.1173Y-5.4177
X8.1181Y-5.3622
X8.1337Y-5.0063
X8.1337Y-5.026
X8.1337Y-5.0457
X8.1337Y-5.0654
X8.1337Y-5.085
X8.1337Y-5.1047
X8.1337Y-5.1244
X8.1337Y-5.1441
X8.1337Y-5.1638
X8.1337Y-5.1835
X8.1337Y-5.2032
X8.1337Y-5.2228
X8.1337Y-5.2425
X8.1534Y-5.0063
X8.1534Y-5.026
X8.1534Y-5.0457
X8.1534Y-5.0654
X8.1534Y-5.085
X8.1534Y-5.1047
X8.1534Y-5.1244
X8.1534Y-5.1441
X8.1534Y-5.1638
X8.1534Y-5.1835
X8.1534Y-5.2032
X8.1534Y-5.2228
X8.1534Y-5.2425
X8.1582Y-3.9638
X8.1582Y-4.0248
X8.1731Y-5.0063
X8.1731Y-5.026
X8.1731Y-5.0457
X8.1731Y-5.0654
X8.1731Y-5.085
X8.1731Y-5.1047
X8.1731Y-5.1244
X8.1731Y-5.1441
X8.1731Y-5.1638
X8.1731Y-5.1835
X8.1731Y-5.2032
X8.1731Y-5.2228
X8.1731Y-5.2425
X8.1782Y-4.4882
X8.1928Y-5.0063
X8.1928Y-5.026
X8.1928Y-5.0457
X8.1928Y-5.0654
X8.1928Y-5.085
X8.1928Y-5.1047
X8.1928Y-5.1244
X8.1928Y-5.1441
X8.1928Y-5.1638
X8.1928Y-5.1835
X8.1928Y-5.2032
X8.1928Y-5.2228
X8.1928Y-5.2425
X8.2125Y-5.0063
X8.2125Y-5.026
X8.2125Y-5.0457
X8.2125Y-5.0654
X8.2125Y-5.085
X8.2125Y-5.1047
X8.2125Y-5.1244
X8.2125Y-5.1441
X8.2125Y-5.1638
X8.2125Y-5.1835
X8.2125Y-5.2032
X8.2125Y-5.2228
X8.2125Y-5.2425
X8.2322Y-5.0063
X8.2322Y-5.026
X8.2322Y-5.0457
X8.2322Y-5.0654
X8.2322Y-5.085
X8.2322Y-5.1047
X8.2322Y-5.1244
X8.2322Y-5.1441
X8.2322Y-5.1638
X8.2322Y-5.1835
X8.2322Y-5.2032
X8.2322Y-5.2228
X8.2322Y-5.2425
X8.2519Y-5.0063
X8.2519Y-5.026
X8.2519Y-5.0457
X8.2519Y-5.0654
X8.2519Y-5.085
X8.2519Y-5.1047
X8.2519Y-5.1244
X8.2519Y-5.1441
X8.2519Y-5.1638
X8.2519Y-5.1835
X8.2519Y-5.2032
X8.2519Y-5.2228
X8.2519Y-5.2425
X8.2715Y-5.0063
X8.2715Y-5.026
X8.2715Y-5.0457
X8.2715Y-5.0654
X8.2715Y-5.085
X8.2715Y-5.1047
X8.2715Y-5.1244
X8.2715Y-5.1441
X8.2715Y-5.1638
X8.2715Y-5.1835
X8.2715Y-5.2032
X8.2715Y-5.2228
X8.2715Y-5.2425
X8.281Y-4.468
X8.2811Y-4.4075
X8.2912Y-5.0063
X8.2912Y-5.026
X8.2912Y-5.0457
X8.2912Y-5.0654
X8.2912Y-5.085
X8.2912Y-5.1047
X8.2912Y-5.1244
X8.2912Y-5.1441
X8.2912Y-5.1638
X8.2912Y-5.1835
X8.2912Y-5.2032
X8.2912Y-5.2228
X8.2912Y-5.2425
X8.3482Y-4.5284
X8.3486Y-4.5871
X8.349Y-4.6461
X8.349Y-4.7052
X8.3727Y-4.9784
X8.3727Y-5.0946
T2
X6.7884Y-2.4686
X6.7884Y-2.7875
X6.852Y-3.2796
X6.8711Y-2.8505
X6.8711Y-2.9095
X6.8907Y-2.7887
X6.8913Y-3.3584
X6.9066Y-3.0158
X6.9735Y-2.6851
X6.9853Y-3.004
X7.1Y-2.851
X7.1Y-3.008
X7.1354Y-2.851
X7.1394Y-3.4292
X7.1782Y-3.6576
X7.1821Y-3.5946
X7.1945Y-2.851
X7.2176Y-3.5198
X7.2496Y-3.2284
X7.2536Y-2.851
X7.2536Y-3.0788
X7.2569Y-3.5277
X7.2727Y-2.7954
X7.2772Y-3.2599
X7.2811Y-3.0985
X7.3244Y-2.9725
X7.3396Y-2.9174
X7.3644Y-3.3399
X7.3717Y-3.2639
X7.4223Y-2.7481
X7.4459Y-3.6851
T3
X6.6792Y-5.028
X6.7429Y-5.3138
X6.7992Y-5.3059
X6.8327Y-5.0295
X6.9136Y-5.3077
X6.9708Y-5.3121
T4
X6.1694Y-4.4713
X6.1694Y-4.6713
X6.1694Y-4.8713
X6.1794Y-4.3713
X6.1794Y-4.5713
X6.1794Y-4.7713
X6.1882Y-2.3276
X6.1882Y-2.4276
X6.1882Y-2.5276
X6.1882Y-2.6276
X6.1882Y-2.7276
X6.1882Y-2.8276
X6.1882Y-2.9276
X6.1882Y-3.0276
X6.1882Y-3.1276
X6.1882Y-3.2276
X6.1882Y-3.3276
X6.1882Y-3.4276
X6.1882Y-3.5276
X6.1882Y-3.6276
X6.1882Y-3.7276
X6.1882Y-3.8276
X6.2882Y-2.3276
X6.2882Y-2.4276
X6.2882Y-2.5276
X6.2882Y-2.6276
X6.2882Y-2.7276
X6.2882Y-2.8276
X6.2882Y-2.9276
X6.2882Y-3.0276
X6.2882Y-3.1276
X6.2882Y-3.2276
X6.2882Y-3.3276
X6.2882Y-3.4276
X6.2882Y-3.5276
X6.2882Y-3.6276
X6.2882Y-3.7276
X6.2882Y-3.8276
X7.936Y-3.25
X7.9996Y-1.711
X8.036Y-3.25
X8.0996Y-1.711
X8.136Y-3.25
M30
