%TF.GenerationSoftware,KiCad,Pcbnew,9.0.0-9.0.0-2~ubuntu22.04.1*%
%TF.CreationDate,2025-03-23T14:07:51-07:00*%
%TF.ProjectId,awg1,61776731-2e6b-4696-9361-645f70636258,rev?*%
%TF.SameCoordinates,Original*%
%TF.FileFunction,Soldermask,Top*%
%TF.FilePolarity,Negative*%
%FSLAX46Y46*%
G04 Gerber Fmt 4.6, Leading zero omitted, Abs format (unit mm)*
G04 Created by KiCad (PCBNEW 9.0.0-9.0.0-2~ubuntu22.04.1) date 2025-03-23 14:07:51*
%MOMM*%
%LPD*%
G01*
G04 APERTURE LIST*
G04 Aperture macros list*
%AMRoundRect*
0 Rectangle with rounded corners*
0 $1 Rounding radius*
0 $2 $3 $4 $5 $6 $7 $8 $9 X,Y pos of 4 corners*
0 Add a 4 corners polygon primitive as box body*
4,1,4,$2,$3,$4,$5,$6,$7,$8,$9,$2,$3,0*
0 Add four circle primitives for the rounded corners*
1,1,$1+$1,$2,$3*
1,1,$1+$1,$4,$5*
1,1,$1+$1,$6,$7*
1,1,$1+$1,$8,$9*
0 Add four rect primitives between the rounded corners*
20,1,$1+$1,$2,$3,$4,$5,0*
20,1,$1+$1,$4,$5,$6,$7,0*
20,1,$1+$1,$6,$7,$8,$9,0*
20,1,$1+$1,$8,$9,$2,$3,0*%
%AMFreePoly0*
4,1,6,0.180000,-0.105000,-0.180000,-0.105000,-0.180000,-0.075000,0.000000,0.105000,0.180000,0.105000,0.180000,-0.105000,0.180000,-0.105000,$1*%
%AMFreePoly1*
4,1,6,0.180000,-0.105000,0.000000,-0.105000,-0.180000,0.075000,-0.180000,0.105000,0.180000,0.105000,0.180000,-0.105000,0.180000,-0.105000,$1*%
%AMFreePoly2*
4,1,6,0.180000,-0.075000,0.180000,-0.105000,-0.180000,-0.105000,-0.180000,0.105000,0.000000,0.105000,0.180000,-0.075000,0.180000,-0.075000,$1*%
%AMFreePoly3*
4,1,6,0.180000,0.075000,0.000000,-0.105000,-0.180000,-0.105000,-0.180000,0.105000,0.180000,0.105000,0.180000,0.075000,0.180000,0.075000,$1*%
G04 Aperture macros list end*
%ADD10C,0.470000*%
%ADD11RoundRect,0.030000X0.225000X0.690000X-0.225000X0.690000X-0.225000X-0.690000X0.225000X-0.690000X0*%
%ADD12RoundRect,0.030000X0.825000X0.650000X-0.825000X0.650000X-0.825000X-0.650000X0.825000X-0.650000X0*%
%ADD13RoundRect,0.030000X0.712500X0.775000X-0.712500X0.775000X-0.712500X-0.775000X0.712500X-0.775000X0*%
%ADD14RoundRect,0.030000X0.900000X0.950000X-0.900000X0.950000X-0.900000X-0.950000X0.900000X-0.950000X0*%
%ADD15RoundRect,0.030000X0.500000X0.950000X-0.500000X0.950000X-0.500000X-0.950000X0.500000X-0.950000X0*%
%ADD16RoundRect,0.215000X-0.290000X0.215000X-0.290000X-0.215000X0.290000X-0.215000X0.290000X0.215000X0*%
%ADD17RoundRect,0.233750X0.233750X0.271250X-0.233750X0.271250X-0.233750X-0.271250X0.233750X-0.271250X0*%
%ADD18RoundRect,0.240000X0.265000X-0.240000X0.265000X0.240000X-0.265000X0.240000X-0.265000X-0.240000X0*%
%ADD19RoundRect,0.240000X-0.265000X0.240000X-0.265000X-0.240000X0.265000X-0.240000X0.265000X0.240000X0*%
%ADD20RoundRect,0.150000X-0.200000X0.150000X-0.200000X-0.150000X0.200000X-0.150000X0.200000X0.150000X0*%
%ADD21RoundRect,0.155000X-0.155000X-0.185000X0.155000X-0.185000X0.155000X0.185000X-0.155000X0.185000X0*%
%ADD22RoundRect,0.155000X-0.185000X0.155000X-0.185000X-0.155000X0.185000X-0.155000X0.185000X0.155000X0*%
%ADD23RoundRect,0.155000X0.155000X0.185000X-0.155000X0.185000X-0.155000X-0.185000X0.155000X-0.185000X0*%
%ADD24RoundRect,0.215000X0.215000X0.290000X-0.215000X0.290000X-0.215000X-0.290000X0.215000X-0.290000X0*%
%ADD25RoundRect,0.258333X1.021667X0.671667X-1.021667X0.671667X-1.021667X-0.671667X1.021667X-0.671667X0*%
%ADD26RoundRect,0.240000X0.240000X0.265000X-0.240000X0.265000X-0.240000X-0.265000X0.240000X-0.265000X0*%
%ADD27RoundRect,0.165000X0.165000X-0.527500X0.165000X0.527500X-0.165000X0.527500X-0.165000X-0.527500X0*%
%ADD28RoundRect,0.165000X0.165000X-0.602500X0.165000X0.602500X-0.165000X0.602500X-0.165000X-0.602500X0*%
%ADD29RoundRect,0.215000X0.290000X-0.215000X0.290000X0.215000X-0.290000X0.215000X-0.290000X-0.215000X0*%
%ADD30RoundRect,0.165000X-0.165000X0.602500X-0.165000X-0.602500X0.165000X-0.602500X0.165000X0.602500X0*%
%ADD31RoundRect,0.233750X0.271250X-0.233750X0.271250X0.233750X-0.271250X0.233750X-0.271250X-0.233750X0*%
%ADD32RoundRect,0.240000X-0.240000X-0.265000X0.240000X-0.265000X0.240000X0.265000X-0.240000X0.265000X0*%
%ADD33RoundRect,0.262500X-0.367500X0.867500X-0.367500X-0.867500X0.367500X-0.867500X0.367500X0.867500X0*%
%ADD34RoundRect,0.252584X-2.677416X2.977416X-2.677416X-2.977416X2.677416X-2.977416X2.677416X2.977416X0*%
%ADD35RoundRect,0.030000X-0.750000X-2.540000X0.750000X-2.540000X0.750000X2.540000X-0.750000X2.540000X0*%
%ADD36RoundRect,0.263043X-0.666957X0.341957X-0.666957X-0.341957X0.666957X-0.341957X0.666957X0.341957X0*%
%ADD37RoundRect,0.263043X0.666957X-0.341957X0.666957X0.341957X-0.666957X0.341957X-0.666957X-0.341957X0*%
%ADD38O,1.760000X1.760000*%
%ADD39RoundRect,0.030000X0.850000X-0.850000X0.850000X0.850000X-0.850000X0.850000X-0.850000X-0.850000X0*%
%ADD40RoundRect,0.165000X-0.165000X0.840000X-0.165000X-0.840000X0.165000X-0.840000X0.165000X0.840000X0*%
%ADD41RoundRect,0.215000X-0.215000X-0.290000X0.215000X-0.290000X0.215000X0.290000X-0.215000X0.290000X0*%
%ADD42RoundRect,0.150000X-0.150000X-0.200000X0.150000X-0.200000X0.150000X0.200000X-0.150000X0.200000X0*%
%ADD43RoundRect,0.233750X-0.271250X0.233750X-0.271250X-0.233750X0.271250X-0.233750X0.271250X0.233750X0*%
%ADD44RoundRect,0.258333X-1.021667X-0.671667X1.021667X-0.671667X1.021667X0.671667X-1.021667X0.671667X0*%
%ADD45RoundRect,0.215000X-0.053033X0.357089X-0.357089X0.053033X0.053033X-0.357089X0.357089X-0.053033X0*%
%ADD46RoundRect,0.030000X-2.540000X0.750000X-2.540000X-0.750000X2.540000X-0.750000X2.540000X0.750000X0*%
%ADD47RoundRect,0.115000X-0.115000X0.652500X-0.115000X-0.652500X0.115000X-0.652500X0.115000X0.652500X0*%
%ADD48RoundRect,0.252500X0.252500X-0.265000X0.252500X0.265000X-0.252500X0.265000X-0.252500X-0.265000X0*%
%ADD49RoundRect,0.233750X-0.233750X-0.271250X0.233750X-0.271250X0.233750X0.271250X-0.233750X0.271250X0*%
%ADD50RoundRect,0.150000X0.150000X0.200000X-0.150000X0.200000X-0.150000X-0.200000X0.150000X-0.200000X0*%
%ADD51RoundRect,0.287960X-2.842040X2.842040X-2.842040X-2.842040X2.842040X-2.842040X2.842040X2.842040X0*%
%ADD52RoundRect,0.077500X-0.452500X0.077500X-0.452500X-0.077500X0.452500X-0.077500X0.452500X0.077500X0*%
%ADD53RoundRect,0.077500X-0.077500X0.452500X-0.077500X-0.452500X0.077500X-0.452500X0.077500X0.452500X0*%
%ADD54RoundRect,0.233750X0.233750X0.396250X-0.233750X0.396250X-0.233750X-0.396250X0.233750X-0.396250X0*%
%ADD55RoundRect,0.165000X-0.602500X-0.165000X0.602500X-0.165000X0.602500X0.165000X-0.602500X0.165000X0*%
%ADD56RoundRect,0.352000X-0.528000X-0.528000X0.528000X-0.528000X0.528000X0.528000X-0.528000X0.528000X0*%
%ADD57RoundRect,0.150000X0.200000X-0.150000X0.200000X0.150000X-0.200000X0.150000X-0.200000X-0.150000X0*%
%ADD58RoundRect,0.100000X0.100000X-0.280000X0.100000X0.280000X-0.100000X0.280000X-0.100000X-0.280000X0*%
%ADD59RoundRect,0.030000X-0.850000X-0.850000X0.850000X-0.850000X0.850000X0.850000X-0.850000X0.850000X0*%
%ADD60RoundRect,0.192000X0.288000X-0.338000X0.288000X0.338000X-0.288000X0.338000X-0.288000X-0.338000X0*%
%ADD61RoundRect,0.155000X0.185000X-0.155000X0.185000X0.155000X-0.185000X0.155000X-0.185000X-0.155000X0*%
%ADD62RoundRect,0.165000X0.602500X0.165000X-0.602500X0.165000X-0.602500X-0.165000X0.602500X-0.165000X0*%
%ADD63C,1.060000*%
%ADD64RoundRect,0.254411X-1.925589X1.475589X-1.925589X-1.475589X1.925589X-1.475589X1.925589X1.475589X0*%
%ADD65RoundRect,0.140000X-0.140000X0.265000X-0.140000X-0.265000X0.140000X-0.265000X0.140000X0.265000X0*%
%ADD66RoundRect,0.258333X-0.671667X1.021667X-0.671667X-1.021667X0.671667X-1.021667X0.671667X1.021667X0*%
%ADD67RoundRect,0.030000X0.300000X-0.550000X0.300000X0.550000X-0.300000X0.550000X-0.300000X-0.550000X0*%
%ADD68RoundRect,0.030000X0.550000X0.450000X-0.550000X0.450000X-0.550000X-0.450000X0.550000X-0.450000X0*%
%ADD69RoundRect,0.120000X0.169706X0.000000X0.000000X0.169706X-0.169706X0.000000X0.000000X-0.169706X0*%
%ADD70FreePoly0,90.000000*%
%ADD71FreePoly1,90.000000*%
%ADD72FreePoly2,90.000000*%
%ADD73FreePoly3,90.000000*%
%ADD74RoundRect,0.030000X0.500000X0.350000X-0.500000X0.350000X-0.500000X-0.350000X0.500000X-0.350000X0*%
%ADD75RoundRect,0.030000X0.500000X0.325000X-0.500000X0.325000X-0.500000X-0.325000X0.500000X-0.325000X0*%
%ADD76RoundRect,0.030000X-0.525000X-0.325000X0.525000X-0.325000X0.525000X0.325000X-0.525000X0.325000X0*%
G04 APERTURE END LIST*
D10*
%TO.C,U201*%
X175513400Y-102074981D03*
X175513400Y-102874981D03*
X175513400Y-103674981D03*
X175513400Y-104474981D03*
X175513400Y-105274981D03*
X175513400Y-106074981D03*
X175513400Y-106874981D03*
X175513400Y-107674981D03*
X175513400Y-108474981D03*
X175513400Y-109274981D03*
X175513400Y-110074981D03*
X175513400Y-110874981D03*
X175513400Y-111674981D03*
X175513400Y-112474981D03*
X175513400Y-113274981D03*
X175513400Y-114074981D03*
X174713400Y-102074981D03*
X174713400Y-102874981D03*
X174713400Y-103674981D03*
X174713400Y-104474981D03*
X174713400Y-105274981D03*
X174713400Y-106074981D03*
X174713400Y-106874981D03*
X174713400Y-107674981D03*
X174713400Y-108474981D03*
X174713400Y-109274981D03*
X174713400Y-110074981D03*
X174713400Y-110874981D03*
X174713400Y-111674981D03*
X174713400Y-112474981D03*
X174713400Y-113274981D03*
X174713400Y-114074981D03*
X173913400Y-102074981D03*
X173913400Y-102874981D03*
X173913400Y-103674981D03*
X173913400Y-104474981D03*
X173913400Y-105274981D03*
X173913400Y-106074981D03*
X173913400Y-106874981D03*
X173913400Y-107674981D03*
X173913400Y-108474981D03*
X173913400Y-109274981D03*
X173913400Y-110074981D03*
X173913400Y-110874981D03*
X173913400Y-111674981D03*
X173913400Y-112474981D03*
X173913400Y-113274981D03*
X173913400Y-114074981D03*
X173113400Y-102074981D03*
X173113400Y-102874981D03*
X173113400Y-103674981D03*
X173113400Y-104474981D03*
X173113400Y-105274981D03*
X173113400Y-106074981D03*
X173113400Y-106874981D03*
X173113400Y-107674981D03*
X173113400Y-108474981D03*
X173113400Y-109274981D03*
X173113400Y-110074981D03*
X173113400Y-110874981D03*
X173113400Y-111674981D03*
X173113400Y-112474981D03*
X173113400Y-113274981D03*
X173113400Y-114074981D03*
X172313400Y-102074981D03*
X172313400Y-102874981D03*
X172313400Y-103674981D03*
X172313400Y-104474981D03*
X172313400Y-105274981D03*
X172313400Y-106074981D03*
X172313400Y-106874981D03*
X172313400Y-107674981D03*
X172313400Y-108474981D03*
X172313400Y-109274981D03*
X172313400Y-110074981D03*
X172313400Y-110874981D03*
X172313400Y-111674981D03*
X172313400Y-112474981D03*
X172313400Y-113274981D03*
X172313400Y-114074981D03*
X171513400Y-102074981D03*
X171513400Y-102874981D03*
X171513400Y-103674981D03*
X171513400Y-104474981D03*
X171513400Y-105274981D03*
X171513400Y-106074981D03*
X171513400Y-106874981D03*
X171513400Y-107674981D03*
X171513400Y-108474981D03*
X171513400Y-109274981D03*
X171513400Y-110074981D03*
X171513400Y-110874981D03*
X171513400Y-111674981D03*
X171513400Y-112474981D03*
X171513400Y-113274981D03*
X171513400Y-114074981D03*
X170713400Y-102074981D03*
X170713400Y-102874981D03*
X170713400Y-103674981D03*
X170713400Y-104474981D03*
X170713400Y-105274981D03*
X170713400Y-106074981D03*
X170713400Y-106874981D03*
X170713400Y-107674981D03*
X170713400Y-108474981D03*
X170713400Y-109274981D03*
X170713400Y-110074981D03*
X170713400Y-110874981D03*
X170713400Y-111674981D03*
X170713400Y-112474981D03*
X170713400Y-113274981D03*
X170713400Y-114074981D03*
X169913400Y-102074981D03*
X169913400Y-102874981D03*
X169913400Y-103674981D03*
X169913400Y-104474981D03*
X169913400Y-105274981D03*
X169913400Y-106074981D03*
X169913400Y-106874981D03*
X169913400Y-107674981D03*
X169913400Y-108474981D03*
X169913400Y-109274981D03*
X169913400Y-110074981D03*
X169913400Y-110874981D03*
X169913400Y-111674981D03*
X169913400Y-112474981D03*
X169913400Y-113274981D03*
X169913400Y-114074981D03*
X169113400Y-102074981D03*
X169113400Y-102874981D03*
X169113400Y-103674981D03*
X169113400Y-104474981D03*
X169113400Y-105274981D03*
X169113400Y-106074981D03*
X169113400Y-106874981D03*
X169113400Y-107674981D03*
X169113400Y-108474981D03*
X169113400Y-109274981D03*
X169113400Y-110074981D03*
X169113400Y-110874981D03*
X169113400Y-111674981D03*
X169113400Y-112474981D03*
X169113400Y-113274981D03*
X169113400Y-114074981D03*
X168313400Y-102074981D03*
X168313400Y-102874981D03*
X168313400Y-103674981D03*
X168313400Y-104474981D03*
X168313400Y-105274981D03*
X168313400Y-106074981D03*
X168313400Y-106874981D03*
X168313400Y-107674981D03*
X168313400Y-108474981D03*
X168313400Y-109274981D03*
X168313400Y-110074981D03*
X168313400Y-110874981D03*
X168313400Y-111674981D03*
X168313400Y-112474981D03*
X168313400Y-113274981D03*
X168313400Y-114074981D03*
X167513400Y-102074981D03*
X167513400Y-102874981D03*
X167513400Y-103674981D03*
X167513400Y-104474981D03*
X167513400Y-105274981D03*
X167513400Y-106074981D03*
X167513400Y-106874981D03*
X167513400Y-107674981D03*
X167513400Y-108474981D03*
X167513400Y-109274981D03*
X167513400Y-110074981D03*
X167513400Y-110874981D03*
X167513400Y-111674981D03*
X167513400Y-112474981D03*
X167513400Y-113274981D03*
X167513400Y-114074981D03*
X166713400Y-102074981D03*
X166713400Y-102874981D03*
X166713400Y-103674981D03*
X166713400Y-104474981D03*
X166713400Y-105274981D03*
X166713400Y-106074981D03*
X166713400Y-106874981D03*
X166713400Y-107674981D03*
X166713400Y-108474981D03*
X166713400Y-109274981D03*
X166713400Y-110074981D03*
X166713400Y-110874981D03*
X166713400Y-111674981D03*
X166713400Y-112474981D03*
X166713400Y-113274981D03*
X166713400Y-114074981D03*
X165913400Y-102074981D03*
X165913400Y-102874981D03*
X165913400Y-103674981D03*
X165913400Y-104474981D03*
X165913400Y-105274981D03*
X165913400Y-106074981D03*
X165913400Y-106874981D03*
X165913400Y-107674981D03*
X165913400Y-108474981D03*
X165913400Y-109274981D03*
X165913400Y-110074981D03*
X165913400Y-110874981D03*
X165913400Y-111674981D03*
X165913400Y-112474981D03*
X165913400Y-113274981D03*
X165913400Y-114074981D03*
X165113400Y-102074981D03*
X165113400Y-102874981D03*
X165113400Y-103674981D03*
X165113400Y-104474981D03*
X165113400Y-105274981D03*
X165113400Y-106074981D03*
X165113400Y-106874981D03*
X165113400Y-107674981D03*
X165113400Y-108474981D03*
X165113400Y-109274981D03*
X165113400Y-110074981D03*
X165113400Y-110874981D03*
X165113400Y-111674981D03*
X165113400Y-112474981D03*
X165113400Y-113274981D03*
X165113400Y-114074981D03*
X164313400Y-102074981D03*
X164313400Y-102874981D03*
X164313400Y-103674981D03*
X164313400Y-104474981D03*
X164313400Y-105274981D03*
X164313400Y-106074981D03*
X164313400Y-106874981D03*
X164313400Y-107674981D03*
X164313400Y-108474981D03*
X164313400Y-109274981D03*
X164313400Y-110074981D03*
X164313400Y-110874981D03*
X164313400Y-111674981D03*
X164313400Y-112474981D03*
X164313400Y-113274981D03*
X164313400Y-114074981D03*
X163513400Y-102074981D03*
X163513400Y-102874981D03*
X163513400Y-103674981D03*
X163513400Y-104474981D03*
X163513400Y-105274981D03*
X163513400Y-106074981D03*
X163513400Y-106874981D03*
X163513400Y-107674981D03*
X163513400Y-108474981D03*
X163513400Y-109274981D03*
X163513400Y-110074981D03*
X163513400Y-110874981D03*
X163513400Y-111674981D03*
X163513400Y-112474981D03*
X163513400Y-113274981D03*
X163513400Y-114074981D03*
%TD*%
D11*
%TO.C,J401*%
X184480200Y-46126400D03*
X183830200Y-46126400D03*
X183180200Y-46126400D03*
X182530200Y-46126400D03*
X181880200Y-46126400D03*
D12*
X186555200Y-43466400D03*
D13*
X185667700Y-46041400D03*
D14*
X184330200Y-43466400D03*
D15*
X181630200Y-43466400D03*
D13*
X180692700Y-46041400D03*
D12*
X179805200Y-43466400D03*
%TD*%
D16*
%TO.C,R2037*%
X178689000Y-69279000D03*
X178689000Y-70929000D03*
%TD*%
%TO.C,R2036*%
X180213000Y-69253600D03*
X180213000Y-70903600D03*
%TD*%
D17*
%TO.C,FB405*%
X185597800Y-50622200D03*
X187172800Y-50622200D03*
%TD*%
D18*
%TO.C,C2011*%
X196062600Y-114300000D03*
X196062600Y-112750000D03*
%TD*%
D19*
%TO.C,C2010*%
X210312000Y-111937800D03*
X210312000Y-113487800D03*
%TD*%
D20*
%TO.C,R211*%
X160858200Y-103149400D03*
X160858200Y-102129400D03*
%TD*%
D21*
%TO.C,C234*%
X163347400Y-116687600D03*
X162387400Y-116687600D03*
%TD*%
%TO.C,C233*%
X180314600Y-102285800D03*
X179354600Y-102285800D03*
%TD*%
D22*
%TO.C,C232*%
X178384200Y-116022000D03*
X178384200Y-115062000D03*
%TD*%
D23*
%TO.C,C231*%
X173106200Y-96545400D03*
X174066200Y-96545400D03*
%TD*%
%TO.C,C230*%
X160596400Y-99731600D03*
X159636400Y-99731600D03*
%TD*%
%TO.C,C229*%
X160599000Y-100736400D03*
X159639000Y-100736400D03*
%TD*%
D21*
%TO.C,C228*%
X175968600Y-99517200D03*
X175008600Y-99517200D03*
%TD*%
%TO.C,C227*%
X175968600Y-98526600D03*
X175008600Y-98526600D03*
%TD*%
D23*
%TO.C,C226*%
X173106200Y-99517200D03*
X174066200Y-99517200D03*
%TD*%
D21*
%TO.C,C225*%
X175968600Y-97536000D03*
X175008600Y-97536000D03*
%TD*%
D23*
%TO.C,C224*%
X173080800Y-97536000D03*
X174040800Y-97536000D03*
%TD*%
%TO.C,C223*%
X173080800Y-98526600D03*
X174040800Y-98526600D03*
%TD*%
D17*
%TO.C,FB404*%
X158749900Y-127736600D03*
X160324900Y-127736600D03*
%TD*%
D24*
%TO.C,R2030*%
X162598600Y-137363200D03*
X164248600Y-137363200D03*
%TD*%
%TO.C,R2029*%
X161100000Y-134213600D03*
X162750000Y-134213600D03*
%TD*%
D25*
%TO.C,D1404*%
X158375600Y-131572000D03*
X162375600Y-131572000D03*
%TD*%
D26*
%TO.C,C2009*%
X161048400Y-135763000D03*
X162598400Y-135763000D03*
%TD*%
D23*
%TO.C,C222*%
X159311400Y-129057400D03*
X160271400Y-129057400D03*
%TD*%
D27*
%TO.C,U502*%
X162407600Y-125487000D03*
X163357600Y-125487000D03*
X164307600Y-125487000D03*
X164307600Y-127762000D03*
X163357600Y-127762000D03*
X162407600Y-127762000D03*
%TD*%
D28*
%TO.C,Q2002*%
X206777000Y-115874600D03*
X208677000Y-115874600D03*
X207727000Y-113999600D03*
%TD*%
D24*
%TO.C,R2020*%
X212044500Y-115022100D03*
X210394500Y-115022100D03*
%TD*%
%TO.C,R2014*%
X212054500Y-116512100D03*
X210404500Y-116512100D03*
%TD*%
%TO.C,R2018*%
X212064500Y-119512100D03*
X210414500Y-119512100D03*
%TD*%
%TO.C,R2016*%
X212064500Y-118012100D03*
X210414500Y-118012100D03*
%TD*%
D19*
%TO.C,C2007*%
X203585300Y-118028300D03*
X203585300Y-119578300D03*
%TD*%
D29*
%TO.C,R2008*%
X202754500Y-94872100D03*
X202754500Y-96522100D03*
%TD*%
D30*
%TO.C,Q2003*%
X198574500Y-115400100D03*
X197624500Y-113525100D03*
X199524500Y-113525100D03*
%TD*%
D28*
%TO.C,Q2006*%
X198577700Y-117365100D03*
X199527700Y-119240100D03*
X197627700Y-119240100D03*
%TD*%
D31*
%TO.C,D2001*%
X198145400Y-92926200D03*
X198145400Y-94501200D03*
%TD*%
D24*
%TO.C,R2013*%
X193006600Y-120350633D03*
X194656600Y-120350633D03*
%TD*%
%TO.C,R2027*%
X205020900Y-121692100D03*
X206670900Y-121692100D03*
%TD*%
%TO.C,R2023*%
X209584800Y-121606900D03*
X211234800Y-121606900D03*
%TD*%
%TO.C,R2019*%
X194656700Y-115818500D03*
X193006700Y-115818500D03*
%TD*%
D32*
%TO.C,C2004*%
X200474100Y-97124100D03*
X198924100Y-97124100D03*
%TD*%
D33*
%TO.C,Q2008*%
X195266100Y-123971900D03*
D34*
X197546100Y-130271900D03*
D33*
X199826100Y-123971900D03*
%TD*%
D35*
%TO.C,J2005*%
X201929200Y-137609600D03*
X206179200Y-137609600D03*
X197679200Y-137609600D03*
%TD*%
D29*
%TO.C,R2025*%
X208588300Y-118524100D03*
X208588300Y-120174100D03*
%TD*%
D36*
%TO.C,C2006*%
X192735200Y-130048000D03*
X192735200Y-127098000D03*
%TD*%
D16*
%TO.C,R2034*%
X204642000Y-114928100D03*
X204642000Y-113278100D03*
%TD*%
D37*
%TO.C,C2005*%
X212665900Y-126452100D03*
X212665900Y-129402100D03*
%TD*%
D16*
%TO.C,R2035*%
X201781100Y-115016500D03*
X201781100Y-113366500D03*
%TD*%
D38*
%TO.C,J1801*%
X206654400Y-82550000D03*
X204114400Y-82550000D03*
D39*
X201574400Y-82550000D03*
%TD*%
D31*
%TO.C,D2002*%
X195961000Y-92996700D03*
X195961000Y-94571700D03*
%TD*%
D29*
%TO.C,R2026*%
X196092300Y-120137500D03*
X196092300Y-121787500D03*
%TD*%
D40*
%TO.C,U2001*%
X205259500Y-104217100D03*
X203989500Y-104217100D03*
X202719500Y-104217100D03*
X201449500Y-104217100D03*
X201449500Y-99267100D03*
X202719500Y-99267100D03*
X203989500Y-99267100D03*
X205259500Y-99267100D03*
%TD*%
D30*
%TO.C,Q2001*%
X204554500Y-111647100D03*
X203604500Y-109772100D03*
X205504500Y-109772100D03*
%TD*%
%TO.C,Q2005*%
X206074500Y-119857100D03*
X205124500Y-117982100D03*
X207024500Y-117982100D03*
%TD*%
D29*
%TO.C,R2007*%
X204304500Y-94877100D03*
X204304500Y-96527100D03*
%TD*%
%TO.C,R2006*%
X201354500Y-90027100D03*
X201354500Y-91677100D03*
%TD*%
D19*
%TO.C,C2002*%
X207217500Y-102229500D03*
X207217500Y-100679500D03*
%TD*%
D28*
%TO.C,Q2004*%
X200955100Y-109664300D03*
X201905100Y-111539300D03*
X200005100Y-111539300D03*
%TD*%
D29*
%TO.C,R2004*%
X204334500Y-90027100D03*
X204334500Y-91677100D03*
%TD*%
%TO.C,R2003*%
X202844500Y-90027100D03*
X202844500Y-91677100D03*
%TD*%
%TO.C,R2022*%
X195961000Y-89815400D03*
X195961000Y-91465400D03*
%TD*%
D18*
%TO.C,C2003*%
X198164500Y-100762100D03*
X198164500Y-102312100D03*
%TD*%
D29*
%TO.C,R2005*%
X205824500Y-90027100D03*
X205824500Y-91677100D03*
%TD*%
D33*
%TO.C,Q2007*%
X205558400Y-123842100D03*
D34*
X207838400Y-130142100D03*
D33*
X210118400Y-123842100D03*
%TD*%
D29*
%TO.C,R2024*%
X196066900Y-115730100D03*
X196066900Y-117380100D03*
%TD*%
D16*
%TO.C,R2009*%
X199724500Y-102342100D03*
X199724500Y-100692100D03*
%TD*%
D24*
%TO.C,R2015*%
X193006600Y-118837300D03*
X194656600Y-118837300D03*
%TD*%
D26*
%TO.C,C2001*%
X202824500Y-93237100D03*
X204374500Y-93237100D03*
%TD*%
D29*
%TO.C,R2010*%
X202644700Y-106330700D03*
X202644700Y-107980700D03*
%TD*%
%TO.C,R2021*%
X198196200Y-89764600D03*
X198196200Y-91414600D03*
%TD*%
D24*
%TO.C,R2017*%
X193006700Y-117331834D03*
X194656700Y-117331834D03*
%TD*%
D41*
%TO.C,R2032*%
X205742500Y-107880100D03*
X204092500Y-107880100D03*
%TD*%
D18*
%TO.C,C2008*%
X201045300Y-117989900D03*
X201045300Y-119539900D03*
%TD*%
D24*
%TO.C,R2028*%
X197887600Y-121860900D03*
X199537600Y-121860900D03*
%TD*%
%TO.C,R2031*%
X199571300Y-107854700D03*
X201221300Y-107854700D03*
%TD*%
D38*
%TO.C,J1802*%
X205729000Y-43459400D03*
D39*
X203189000Y-43459400D03*
%TD*%
D41*
%TO.C,R212*%
X145645922Y-106969078D03*
X143995922Y-106969078D03*
%TD*%
D29*
%TO.C,R1001*%
X181928422Y-108201409D03*
X181928422Y-109851409D03*
%TD*%
D42*
%TO.C,R208*%
X152740922Y-105479078D03*
X151720922Y-105479078D03*
%TD*%
D43*
%TO.C,R404*%
X186040172Y-84389931D03*
X186040172Y-82814931D03*
%TD*%
D44*
%TO.C,D1402*%
X153060922Y-50729078D03*
X149060922Y-50729078D03*
%TD*%
D17*
%TO.C,C309*%
X165705000Y-59150000D03*
X167280000Y-59150000D03*
%TD*%
D20*
%TO.C,R203*%
X160570000Y-108660000D03*
X160570000Y-107640000D03*
%TD*%
D29*
%TO.C,R1301*%
X181928422Y-97967125D03*
X181928422Y-99617125D03*
%TD*%
D18*
%TO.C,C312*%
X177340000Y-52630000D03*
X177340000Y-54180000D03*
%TD*%
D31*
%TO.C,C402*%
X189026476Y-70902431D03*
X189026476Y-72477431D03*
%TD*%
D29*
%TO.C,R801*%
X181928422Y-115024265D03*
X181928422Y-116674265D03*
%TD*%
D45*
%TO.C,R409*%
X175310800Y-91516200D03*
X176477526Y-90349474D03*
%TD*%
D31*
%TO.C,D701*%
X187318422Y-118498193D03*
X187318422Y-120073193D03*
%TD*%
D17*
%TO.C,C403*%
X184495000Y-49010000D03*
X186070000Y-49010000D03*
%TD*%
D46*
%TO.C,J1701*%
X143620922Y-60293574D03*
X143620922Y-68793574D03*
X143620922Y-64543574D03*
%TD*%
D47*
%TO.C,U501*%
X174855922Y-129552481D03*
X174205922Y-129552481D03*
X173555922Y-129552481D03*
X172905922Y-129552481D03*
X172255922Y-129552481D03*
X171605922Y-129552481D03*
X170955922Y-129552481D03*
X170305922Y-129552481D03*
X169655922Y-129552481D03*
X169005922Y-129552481D03*
X168355922Y-129552481D03*
X167705922Y-129552481D03*
X167055922Y-129552481D03*
X166405922Y-129552481D03*
X166405922Y-123827481D03*
X167055922Y-123827481D03*
X167705922Y-123827481D03*
X168355922Y-123827481D03*
X169005922Y-123827481D03*
X169655922Y-123827481D03*
X170305922Y-123827481D03*
X170955922Y-123827481D03*
X171605922Y-123827481D03*
X172255922Y-123827481D03*
X172905922Y-123827481D03*
X173555922Y-123827481D03*
X174205922Y-123827481D03*
X174855922Y-123827481D03*
%TD*%
D48*
%TO.C,R1302*%
X188798422Y-98077125D03*
X188798422Y-99902125D03*
%TD*%
D46*
%TO.C,J1501*%
X143620922Y-77915073D03*
X143620922Y-86415073D03*
X143620922Y-82165073D03*
%TD*%
D49*
%TO.C,C409*%
X177001476Y-75502431D03*
X175426476Y-75502431D03*
%TD*%
D25*
%TO.C,D1701*%
X149028422Y-61345073D03*
X153028422Y-61345073D03*
%TD*%
D23*
%TO.C,C220*%
X178720922Y-120759078D03*
X179680922Y-120759078D03*
%TD*%
D48*
%TO.C,R1002*%
X188798422Y-108311409D03*
X188798422Y-110136409D03*
%TD*%
D50*
%TO.C,R209*%
X155390000Y-100230000D03*
X156410000Y-100230000D03*
%TD*%
D26*
%TO.C,C302*%
X157665000Y-51040000D03*
X159215000Y-51040000D03*
%TD*%
D32*
%TO.C,C308*%
X181260000Y-55920000D03*
X179710000Y-55920000D03*
%TD*%
D29*
%TO.C,R701*%
X181928422Y-118435693D03*
X181928422Y-120085693D03*
%TD*%
D45*
%TO.C,R408*%
X177369037Y-89000763D03*
X178535763Y-87834037D03*
%TD*%
D29*
%TO.C,C501*%
X177190000Y-131915000D03*
X177190000Y-133565000D03*
%TD*%
%TO.C,R1101*%
X181928422Y-104789981D03*
X181928422Y-106439981D03*
%TD*%
D48*
%TO.C,R1202*%
X188798422Y-101488553D03*
X188798422Y-103313553D03*
%TD*%
D31*
%TO.C,C415*%
X183664476Y-91302931D03*
X183664476Y-92877931D03*
%TD*%
D26*
%TO.C,R307*%
X165712500Y-57520000D03*
X167262500Y-57520000D03*
%TD*%
D51*
%TO.C,U403*%
X179073372Y-81437531D03*
D52*
X182973372Y-78687531D03*
X182973372Y-79187531D03*
X182973372Y-79687531D03*
X182973372Y-80187531D03*
X182973372Y-80687531D03*
X182973372Y-81187531D03*
X182973372Y-81687531D03*
X182973372Y-82187531D03*
X182973372Y-82687531D03*
X182973372Y-83187531D03*
X182973372Y-83687531D03*
X182973372Y-84187531D03*
D53*
X181823372Y-85337531D03*
X181323372Y-85337531D03*
X180823372Y-85337531D03*
X180323372Y-85337531D03*
X179823372Y-85337531D03*
X179323372Y-85337531D03*
X178823372Y-85337531D03*
X178323372Y-85337531D03*
X177823372Y-85337531D03*
X177323372Y-85337531D03*
X176823372Y-85337531D03*
X176323372Y-85337531D03*
D52*
X175173372Y-84187531D03*
X175173372Y-83687531D03*
X175173372Y-83187531D03*
X175173372Y-82687531D03*
X175173372Y-82187531D03*
X175173372Y-81687531D03*
X175173372Y-81187531D03*
X175173372Y-80687531D03*
X175173372Y-80187531D03*
X175173372Y-79687531D03*
X175173372Y-79187531D03*
X175173372Y-78687531D03*
D53*
X176323372Y-77537531D03*
X176823372Y-77537531D03*
X177323372Y-77537531D03*
X177823372Y-77537531D03*
X178323372Y-77537531D03*
X178823372Y-77537531D03*
X179323372Y-77537531D03*
X179823372Y-77537531D03*
X180323372Y-77537531D03*
X180823372Y-77537531D03*
X181323372Y-77537531D03*
X181823372Y-77537531D03*
%TD*%
D49*
%TO.C,FB401*%
X184130000Y-50540000D03*
X182555000Y-50540000D03*
%TD*%
D54*
%TO.C,L302*%
X166517500Y-52800000D03*
X168642500Y-52800000D03*
%TD*%
D29*
%TO.C,R410*%
X172396476Y-63954931D03*
X172396476Y-65604931D03*
%TD*%
D31*
%TO.C,FB402*%
X184252172Y-73414931D03*
X184252172Y-74989931D03*
%TD*%
D55*
%TO.C,Q1101*%
X185565922Y-105659981D03*
X183690922Y-106609981D03*
X183690922Y-104709981D03*
%TD*%
D25*
%TO.C,D1501*%
X149028422Y-78966572D03*
X153028422Y-78966572D03*
%TD*%
D31*
%TO.C,D801*%
X187318422Y-115086765D03*
X187318422Y-116661765D03*
%TD*%
D32*
%TO.C,R305*%
X180535000Y-49280000D03*
X178985000Y-49280000D03*
%TD*%
D48*
%TO.C,R1102*%
X188798422Y-104899981D03*
X188798422Y-106724981D03*
%TD*%
D31*
%TO.C,D1201*%
X187318422Y-101441053D03*
X187318422Y-103016053D03*
%TD*%
D42*
%TO.C,R204*%
X160630922Y-105119078D03*
X159610922Y-105119078D03*
%TD*%
D41*
%TO.C,R1904*%
X149878422Y-99438071D03*
X148228422Y-99438071D03*
%TD*%
D29*
%TO.C,R601*%
X181928422Y-121847121D03*
X181928422Y-123497121D03*
%TD*%
D48*
%TO.C,R802*%
X188798422Y-115134265D03*
X188798422Y-116959265D03*
%TD*%
D44*
%TO.C,D1702*%
X153060922Y-68350577D03*
X149060922Y-68350577D03*
%TD*%
D38*
%TO.C,J202*%
X156703922Y-123729981D03*
X156957922Y-121189981D03*
X156703922Y-118649981D03*
X156957922Y-116109981D03*
X156703922Y-113569981D03*
D56*
X156957922Y-111029981D03*
%TD*%
D48*
%TO.C,R902*%
X188798422Y-111722837D03*
X188798422Y-113547837D03*
%TD*%
D31*
%TO.C,D1301*%
X187318422Y-98029625D03*
X187318422Y-99604625D03*
%TD*%
D42*
%TO.C,R210*%
X152780922Y-106559078D03*
X151760922Y-106559078D03*
%TD*%
D16*
%TO.C,R505*%
X174170000Y-133565000D03*
X174170000Y-131915000D03*
%TD*%
D26*
%TO.C,R306*%
X165700000Y-60680000D03*
X167250000Y-60680000D03*
%TD*%
D31*
%TO.C,R403*%
X189040172Y-75514931D03*
X189040172Y-77089931D03*
%TD*%
D17*
%TO.C,C411*%
X175559672Y-73910931D03*
X177134672Y-73910931D03*
%TD*%
D57*
%TO.C,R201*%
X159320922Y-113919078D03*
X159320922Y-114939078D03*
%TD*%
D31*
%TO.C,D1001*%
X187318422Y-108263909D03*
X187318422Y-109838909D03*
%TD*%
D41*
%TO.C,R1903*%
X149878422Y-81816572D03*
X148228422Y-81816572D03*
%TD*%
D55*
%TO.C,Q1301*%
X185565922Y-98837125D03*
X183690922Y-99787125D03*
X183690922Y-97887125D03*
%TD*%
D23*
%TO.C,C221*%
X157400922Y-108659078D03*
X158360922Y-108659078D03*
%TD*%
D31*
%TO.C,D1101*%
X187318422Y-104852481D03*
X187318422Y-106427481D03*
%TD*%
D58*
%TO.C,U303*%
X167560000Y-54270000D03*
X168060000Y-54270000D03*
X168560000Y-54270000D03*
X168560000Y-55770000D03*
X168060000Y-55770000D03*
X167560000Y-55770000D03*
%TD*%
D31*
%TO.C,C410*%
X181252172Y-73414931D03*
X181252172Y-74989931D03*
%TD*%
D24*
%TO.C,R506*%
X166865922Y-135159981D03*
X168515922Y-135159981D03*
%TD*%
D17*
%TO.C,C408*%
X184452672Y-76702431D03*
X186027672Y-76702431D03*
%TD*%
D38*
%TO.C,J201*%
X159720922Y-97219981D03*
X157180922Y-97219981D03*
X159720922Y-94679981D03*
X157180922Y-94679981D03*
X159720922Y-92139981D03*
X157180922Y-92139981D03*
X159720922Y-89599981D03*
X157180922Y-89599981D03*
X159720922Y-87059981D03*
X157180922Y-87059981D03*
X159720922Y-84519981D03*
X157180922Y-84519981D03*
X159720922Y-81979981D03*
X157180922Y-81979981D03*
X159720922Y-79439981D03*
X157180922Y-79439981D03*
X159720922Y-76899981D03*
X157180922Y-76899981D03*
X159720922Y-74359981D03*
X157180922Y-74359981D03*
X159720922Y-71819981D03*
X157180922Y-71819981D03*
X159720922Y-69279981D03*
X157180922Y-69279981D03*
X159720922Y-66739981D03*
X157180922Y-66739981D03*
X159720922Y-64199981D03*
X157180922Y-64199981D03*
X159720922Y-61659981D03*
X157180922Y-61659981D03*
X159720922Y-59119981D03*
D59*
X157180922Y-59119981D03*
%TD*%
D60*
%TO.C,X201*%
X177410922Y-119309078D03*
X177410922Y-117409078D03*
X179510922Y-117409078D03*
X179510922Y-119309078D03*
%TD*%
D61*
%TO.C,C209*%
X148892600Y-114224200D03*
X148892600Y-115184200D03*
%TD*%
D25*
%TO.C,D1401*%
X149028422Y-43723574D03*
X153028422Y-43723574D03*
%TD*%
D26*
%TO.C,R304*%
X166020000Y-50920000D03*
X167570000Y-50920000D03*
%TD*%
D43*
%TO.C,C414*%
X189126476Y-92539931D03*
X189126476Y-90964931D03*
%TD*%
D62*
%TO.C,Q201*%
X144280922Y-109489078D03*
X146155922Y-108539078D03*
X146155922Y-110439078D03*
%TD*%
D25*
%TO.C,D1601*%
X149028422Y-96588071D03*
X153028422Y-96588071D03*
%TD*%
D55*
%TO.C,Q801*%
X185565922Y-115894265D03*
X183690922Y-116844265D03*
X183690922Y-114944265D03*
%TD*%
D24*
%TO.C,R407*%
X177525000Y-97960000D03*
X179175000Y-97960000D03*
%TD*%
D29*
%TO.C,R501*%
X175670000Y-131935000D03*
X175670000Y-133585000D03*
%TD*%
D31*
%TO.C,D601*%
X187318422Y-121909621D03*
X187318422Y-123484621D03*
%TD*%
D46*
%TO.C,J1601*%
X143620922Y-95536572D03*
X143620922Y-104036572D03*
X143620922Y-99786572D03*
%TD*%
D31*
%TO.C,D901*%
X187318422Y-111675337D03*
X187318422Y-113250337D03*
%TD*%
D50*
%TO.C,R205*%
X159520922Y-110709078D03*
X160540922Y-110709078D03*
%TD*%
D49*
%TO.C,C404*%
X187627672Y-85902431D03*
X186052672Y-85902431D03*
%TD*%
D55*
%TO.C,Q1001*%
X185565922Y-109071409D03*
X183690922Y-110021409D03*
X183690922Y-108121409D03*
%TD*%
D31*
%TO.C,D401*%
X172436476Y-68002431D03*
X172436476Y-69577431D03*
%TD*%
D29*
%TO.C,R1201*%
X181928422Y-101378553D03*
X181928422Y-103028553D03*
%TD*%
D49*
%TO.C,R402*%
X187332476Y-69109431D03*
X185757476Y-69109431D03*
%TD*%
D63*
%TO.C,TP401*%
X186126476Y-88402431D03*
%TD*%
D46*
%TO.C,J1401*%
X143620922Y-42672075D03*
X143620922Y-51172075D03*
X143620922Y-46922075D03*
%TD*%
D43*
%TO.C,C405*%
X184326476Y-88689931D03*
X184326476Y-87114931D03*
%TD*%
D55*
%TO.C,Q1201*%
X185565922Y-102248553D03*
X183690922Y-103198553D03*
X183690922Y-101298553D03*
%TD*%
D17*
%TO.C,C401*%
X187465172Y-74002431D03*
X189040172Y-74002431D03*
%TD*%
D18*
%TO.C,C311*%
X164630000Y-54465000D03*
X164630000Y-56015000D03*
%TD*%
D64*
%TO.C,U202*%
X156025922Y-104339078D03*
D65*
X157930922Y-107039078D03*
X156660922Y-107039078D03*
X155390922Y-107039078D03*
X154120922Y-107039078D03*
X154120922Y-101639078D03*
X155390922Y-101639078D03*
X156660922Y-101639078D03*
X157930922Y-101639078D03*
%TD*%
D41*
%TO.C,R1901*%
X149878422Y-46573574D03*
X148228422Y-46573574D03*
%TD*%
D29*
%TO.C,R502*%
X171200000Y-131909981D03*
X171200000Y-133559981D03*
%TD*%
D66*
%TO.C,D1602*%
X149098000Y-107460800D03*
X149098000Y-103460800D03*
%TD*%
D48*
%TO.C,R602*%
X188798422Y-121957121D03*
X188798422Y-123782121D03*
%TD*%
D29*
%TO.C,R202*%
X150242600Y-113814200D03*
X150242600Y-115464200D03*
%TD*%
D24*
%TO.C,R1602*%
X148223422Y-100998071D03*
X149873422Y-100998071D03*
%TD*%
D61*
%TO.C,C214*%
X159590922Y-107679078D03*
X159590922Y-108639078D03*
%TD*%
D67*
%TO.C,U401*%
X186190172Y-78702431D03*
X187140172Y-78702431D03*
X188090172Y-78702431D03*
X188090172Y-81502431D03*
X187140172Y-81502431D03*
X186190172Y-81502431D03*
%TD*%
D55*
%TO.C,Q901*%
X185565922Y-112482837D03*
X183690922Y-113432837D03*
X183690922Y-111532837D03*
%TD*%
D54*
%TO.C,L303*%
X177727500Y-51040000D03*
X179852500Y-51040000D03*
%TD*%
D31*
%TO.C,R406*%
X179740172Y-73414931D03*
X179740172Y-74989931D03*
%TD*%
D68*
%TO.C,U402*%
X187606476Y-72339931D03*
X185876476Y-72339931D03*
X185876476Y-71039931D03*
X187576476Y-71039931D03*
%TD*%
D31*
%TO.C,D201*%
X142460922Y-107601578D03*
X142460922Y-109176578D03*
%TD*%
D58*
%TO.C,U304*%
X178980000Y-52800000D03*
X179480000Y-52800000D03*
X179980000Y-52800000D03*
X179980000Y-54300000D03*
X179480000Y-54300000D03*
X178980000Y-54300000D03*
%TD*%
D29*
%TO.C,C503*%
X168270000Y-131970019D03*
X168270000Y-133620019D03*
%TD*%
D24*
%TO.C,R1502*%
X148223422Y-83376572D03*
X149873422Y-83376572D03*
%TD*%
D16*
%TO.C,R504*%
X165320000Y-133595000D03*
X165320000Y-131945000D03*
%TD*%
D29*
%TO.C,R411*%
X174906476Y-63954931D03*
X174906476Y-65604931D03*
%TD*%
D43*
%TO.C,C406*%
X182826476Y-88289931D03*
X182826476Y-86714931D03*
%TD*%
D26*
%TO.C,R308*%
X176595000Y-57280000D03*
X178145000Y-57280000D03*
%TD*%
D18*
%TO.C,C313*%
X166130000Y-54435000D03*
X166130000Y-55985000D03*
%TD*%
D26*
%TO.C,R309*%
X176650000Y-55720000D03*
X178200000Y-55720000D03*
%TD*%
D41*
%TO.C,R1905*%
X149878422Y-64195073D03*
X148228422Y-64195073D03*
%TD*%
D55*
%TO.C,Q601*%
X185565922Y-122717121D03*
X183690922Y-123667121D03*
X183690922Y-121767121D03*
%TD*%
D57*
%TO.C,R405*%
X188553200Y-82922541D03*
X188553200Y-83942541D03*
%TD*%
D31*
%TO.C,C407*%
X173840172Y-84314931D03*
X173840172Y-85889931D03*
%TD*%
D32*
%TO.C,C307*%
X170315000Y-57210000D03*
X168765000Y-57210000D03*
%TD*%
D24*
%TO.C,R1702*%
X148223422Y-65755073D03*
X149873422Y-65755073D03*
%TD*%
D29*
%TO.C,R901*%
X181928422Y-111612837D03*
X181928422Y-113262837D03*
%TD*%
D17*
%TO.C,C310*%
X176507500Y-58990000D03*
X178082500Y-58990000D03*
%TD*%
%TO.C,C413*%
X175572172Y-72410931D03*
X177147172Y-72410931D03*
%TD*%
D43*
%TO.C,R401*%
X187574172Y-77153431D03*
X187574172Y-75578431D03*
%TD*%
D69*
%TO.C,U302*%
X158375000Y-52775000D03*
D70*
X158700000Y-52345000D03*
D71*
X158050000Y-52345000D03*
D72*
X158700000Y-53205000D03*
D73*
X158050000Y-53205000D03*
%TD*%
D74*
%TO.C,U404*%
X185026476Y-92902431D03*
X185026476Y-91002431D03*
D75*
X187626476Y-91002431D03*
X187626476Y-91952431D03*
X187626476Y-92902431D03*
%TD*%
D42*
%TO.C,R206*%
X160540922Y-109669078D03*
X159520922Y-109669078D03*
%TD*%
D76*
%TO.C,SW201*%
X147337600Y-115959200D03*
X143187600Y-115959200D03*
X147337600Y-113809200D03*
X143187600Y-113809200D03*
%TD*%
D55*
%TO.C,Q701*%
X185565922Y-119305693D03*
X183690922Y-120255693D03*
X183690922Y-118355693D03*
%TD*%
D29*
%TO.C,C502*%
X172707172Y-131909981D03*
X172707172Y-133559981D03*
%TD*%
D48*
%TO.C,R702*%
X188798422Y-118545693D03*
X188798422Y-120370693D03*
%TD*%
D44*
%TO.C,D1502*%
X153060922Y-85972076D03*
X149060922Y-85972076D03*
%TD*%
D31*
%TO.C,C412*%
X182740172Y-73414931D03*
X182740172Y-74989931D03*
%TD*%
%TO.C,D402*%
X175026476Y-68002431D03*
X175026476Y-69577431D03*
%TD*%
%TO.C,FB403*%
X177140172Y-69327431D03*
X177140172Y-70902431D03*
%TD*%
D16*
%TO.C,R503*%
X166802172Y-133595000D03*
X166802172Y-131945000D03*
%TD*%
D24*
%TO.C,R1402*%
X148223422Y-48133574D03*
X149873422Y-48133574D03*
%TD*%
D26*
%TO.C,C306*%
X157560000Y-54520000D03*
X159110000Y-54520000D03*
%TD*%
D18*
%TO.C,C314*%
X175740000Y-52665000D03*
X175740000Y-54215000D03*
%TD*%
M02*
